<?xml version="1.0" encoding="utf-8"?>
<!-- Generator: Adobe Illustrator 16.0.0, SVG Export Plug-In . SVG Version: 6.00 Build 0)  -->
<!DOCTYPE svg PUBLIC "-//W3C//DTD SVG 1.1//EN" "http://www.w3.org/Graphics/SVG/1.1/DTD/svg11.dtd">
<svg version="1.1" id="Layer_1" xmlns="http://www.w3.org/2000/svg" xmlns:xlink="http://www.w3.org/1999/xlink" x="0px" y="0px"
	 width="245.238px" height="140.119px" viewBox="0 0 245.238 140.119" enable-background="new 0 0 245.238 140.119"
	 xml:space="preserve">
<g>
	<path fill-rule="evenodd" clip-rule="evenodd" fill="#FFFFFF" d="M183.792,130.214c0.395,0.357,0.79,0.337,1.211,0.03
		c0.283-0.206,0.523-0.53,1.029-0.396c0.029,0.117,0.07,0.26,0.099,0.404c0.08,0.453,0.079,0.453,0.769,0.508
		c0.006-0.267,0.016-0.531,0.027-0.893c0.185,0.07,0.367,0.087,0.44,0.184c0.145,0.186,0.227,0.416,0.349,0.657
		c0.352,0.127,0.755,0.214,1.094,0.409c0.309,0.176,0.553,0.469,0.818,0.715c0.383,0.357,0.764,0.719,1.143,1.08
		c0.436,0.423,0.615,0.938,0.534,1.527c-0.154,1.146-0.294,2.298-0.493,3.438c-0.156,0.904-0.449,1.164-1.396,1.188
		c-1.508,0.034-3.015,0.01-4.523-0.008c-4.199-0.051-8.395-0.217-12.594,0.042c-3.499,0.212-7.004,0.353-10.508,0.518
		c-0.863,0.04-1.711,0.028-2.382-0.663c-0.144-0.148-0.444-0.213-0.673-0.205c-0.91,0.027-1.554-0.366-2.046-1.087
		c-0.123-0.18-0.356-0.284-0.608-0.474c-0.039,0.289-0.068,0.466-0.094,0.663c-0.127,0.013-0.252,0.061-0.361,0.036
		c-1.228-0.293-0.729,0.018-1.859-0.564c-0.936-0.482-1.906-0.9-2.878-1.312c-0.447-0.191-0.911-0.281-1.428-0.178
		c-0.519,0.102-0.779-0.119-0.783-0.646c-0.007-0.836,0.044-1.671,0.095-2.505c0.023-0.356,2.59-0.705,2.621-1.062
		c0.035-0.428-0.109-0.776-0.529-0.994c-0.41-0.214-0.769-0.207-1.102,0.141c-0.047,0.049-0.149,0.049-0.291,0.094
		c-0.125-0.092-0.305-0.188-0.434-0.328c-0.646-0.703-0.633-0.858-0.055-1.643c0.234-0.318,0.391-0.693,0.605-1.027
		c0.171-0.267,0.353-0.536,0.582-0.754c0.162-0.153,0.412-0.219,0.635-0.33c0.111,0.127,0.213,0.199,0.26,0.298
		c0.104,0.231,0.217,0.45,0.521,0.405c0.289-0.044,0.357-0.287,0.425-0.525c0.022-0.072,0.079-0.133,0.122-0.199
		c1.396,0.355,0.398,0.469,1.617,1.365c1.022-0.431,0.316-0.896,1.326-0.769c0.415,0.052,0.807,0.101,1.089,0.449
		c0.073,0.087,0.192,0.194,0.292,0.198c1.158,0.045,2.113,0.846,3.287,0.826c0.039-0.002,0.082,0.006,0.119,0.021
		c1.06,0.46,2.188,0.594,3.327,0.697c0.218,0.021,0.414,0.225,0.62,0.342c-0.049,0.04-0.1,0.078-0.146,0.115
		c0.051-0.036,0.104-0.072,0.151-0.107c1.474-0.406,2.976-0.387,4.479-0.282c0.282,0.021,0.59,0.096,0.846,0.021
		c0.84-0.249,1.703-0.062,2.549-0.175c0.188-0.026,0.393,0.06,0.589,0.097c0.191,0.039,0.409,0.16,0.569,0.109
		c0.541-0.174,0.916-0.01,1.319,0.354c0.208,0.188,0.598,0.264,0.901,0.258c1.715-0.035,3.408,0.103,5.095,0.433
		c0.707,0.138,1.458,0.089,2.187,0.089C182.905,130.798,183.373,130.551,183.792,130.214z M150.196,128.368
		c0.03-0.011,0.06-0.021,0.087-0.034c-0.024-0.038-0.049-0.079-0.074-0.12c-0.018,0.025-0.047,0.051-0.052,0.076
		C150.154,128.313,150.183,128.343,150.196,128.368z"/>
	<path fill-rule="evenodd" clip-rule="evenodd" fill="#FFFFFF" d="M129.589,39.798c-0.012,0.018-0.022,0.035-0.036,0.052
		c0.008,0.156,0.019,0.325,0.03,0.561c-0.172-0.046-0.369-0.044-0.391-0.116c-0.105-0.355-0.49-0.618-0.293-1.079l0.021,0.026
		c-0.084-0.156-0.156-0.322-0.252-0.467c-0.172-0.264-0.342-0.271-0.553-0.023c-0.089,0.104-0.152,0.236-0.239,0.375
		c-0.272,0.023-0.554,0.05-0.847,0.078c-0.014-0.212-0.025-0.385-0.039-0.584c-0.391-0.224-0.724-0.144-1.031,0.221
		c-0.077,0.095-0.209,0.129-0.33,0.196c-0.201-0.244-0.375-0.454-0.555-0.674c-0.49,0-0.966,0-1.434,0
		c-0.172,0.181-0.334,0.35-0.487,0.509c-0.185-0.084-0.331-0.149-0.48-0.214c-0.4,0.404-0.4,0.404-0.795,0.421
		c0.031-0.238,0.062-0.473,0.098-0.746c-0.154,0.015-0.302-0.013-0.324,0.037c-0.16,0.34-0.365,0.475-0.708,0.374
		c-0.383-0.111-0.66,0.133-0.918,0.433c-0.335,0.393-0.408,0.375-0.694-0.089c-0.055-0.088-0.105-0.178-0.167-0.287
		c-0.189-0.014-0.378-0.025-0.565-0.041c-0.431-0.037-0.608,0.351-0.808,0.675c-0.147,0.24-0.049,0.469,0.08,0.709
		c0.129,0.239,0.185,0.53,0.271,0.799c0.012,0,0.02-0.004,0.03-0.005c-0.002,0.011-0.004,0.022-0.007,0.033
		c0.096,0.046,0.192,0.094,0.289,0.14c-0.013-0.058-0.029-0.117-0.034-0.175c0-0.02,0.008-0.041,0.019-0.061
		c-0.012-0.034-0.023-0.068-0.034-0.102c0.016,0.019,0.043,0.039,0.043,0.06c0,0.014-0.006,0.029-0.009,0.042
		c0.003,0.02,0.01,0.041,0.014,0.062c0.008,0.057,0.003,0.116,0.003,0.175c-0.001,0-0.001,0-0.001-0.001c0,0.001,0,0.001,0,0.002
		c-0.052,0.003-0.104-0.006-0.155,0.01c-0.067,0.023-0.129,0.066-0.195,0.101c0.021-0.085,0.039-0.169,0.061-0.254
		c-0.008-0.003-0.012-0.006-0.019-0.01c-0.002-0.004-0.003-0.011-0.005-0.017c-0.172,0.036-0.317,0.076-0.393-0.24
		c-0.107-0.458-0.144-0.448-0.673-0.433c-0.048,0.489,0.122,1.008-0.154,1.536c-0.192-0.103-0.462-0.15-0.498-0.285
		c-0.139-0.498-0.51-0.492-0.817-0.556c-0.121-0.831-0.121-0.831-0.992-0.835c-0.062,0.294-0.098,0.622-0.2,0.92
		c-0.094,0.281-0.256,0.531-0.393,0.8c-0.192-0.129-0.352-0.237-0.531-0.358c0.034-0.167,0.068-0.305,0.085-0.446
		c0.073-0.568-0.001-0.75-0.467-0.898c-0.215-0.069-0.397-0.188-0.593-0.273c-0.199-0.089-0.478,0.059-0.722,0.102
		c-0.031,0.004-0.064,0-0.093,0c-0.119-0.165-0.231-0.326-0.354-0.499c-0.221,0.427-0.253,0.488-0.141,0.583
		c0.325,0.272,0.312,0.689,0.379,0.995c-0.19,0.286-0.353,0.527-0.478,0.717c-0.258,0.033-0.471,0.06-0.685,0.089c0,0,0,0,0,0
		c0.007,0.009,0.013,0.014,0.02,0.022c-0.013,0.002-0.024,0.003-0.037,0.005c-0.041,0.062-0.078,0.128-0.13,0.173
		c-0.018,0.015-0.089-0.052-0.135-0.083c0.015-0.022,0.031-0.062,0.05-0.062c0.071-0.015,0.144-0.021,0.215-0.028
		c0.006-0.009,0.011-0.017,0.017-0.027c-0.109-0.128-0.233-0.177-0.404-0.147c-0.323,0.057-0.387,0.411-0.527,0.585
		c-0.246-0.091-0.454-0.153-0.653-0.248c-0.216-0.106-0.419-0.242-0.637-0.37c-0.127,0.492-0.248,0.908-0.34,1.332
		c-0.054,0.246-0.088,0.506-0.088,0.76c0,0.874,0.219,1.74,0.039,2.626c-0.027,0.132,0.124,0.313,0.173,0.425
		c0.443,0,0.823,0.01,1.204-0.004c0.224-0.008,0.489,0.02,0.658-0.106c0.394-0.294,0.784-0.208,1.197-0.146
		c0.539,0.078,1.081,0.149,1.622,0.164c0.475,0.014,0.978,0.042,1.418-0.119c0.357-0.129,0.653-0.202,1.002-0.055
		c0.139,0.059,0.318,0.047,0.47,0.009c0.878-0.228,1.776-0.013,2.66-0.142c0.408-0.059,0.809-0.076,1.208-0.242
		c0.226-0.094,0.514-0.143,0.737-0.066c0.757,0.254,1.494,0.314,2.241-0.006c0.11-0.048,0.251,0,0.378,0.006
		c0.348,0.017,0.696,0.054,1.044,0.052c0.54-0.003,1.082-0.035,1.624-0.048c0.734-0.016,1.471-0.015,2.207-0.043
		c1.273-0.049,2.543-0.252,3.819-0.267L129.589,39.798z M108.685,44.374c0.044-0.189,0.088-0.378,0.148-0.644
		c-0.117-0.19-0.271-0.441-0.412-0.67c0.116-0.288,0.279-0.342,0.484-0.288C109.378,43.695,109.378,43.695,108.685,44.374z
		 M112.657,41.814c-0.238,0.154-0.417,0.062-0.597-0.153C112.305,41.537,112.49,41.613,112.657,41.814z M112.451,42.34
		c-0.02,0-0.046-0.107-0.082-0.198c0.079-0.027,0.162-0.086,0.229-0.069c0.045,0.01,0.071,0.129,0.107,0.2
		C112.62,42.299,112.536,42.335,112.451,42.34z M112.851,40.697c-0.022,0.007-0.043,0.018-0.061,0.026
		c-0.005-0.041-0.009-0.083-0.013-0.122c0.023,0.005,0.056,0.001,0.068,0.018C112.856,40.634,112.85,40.67,112.851,40.697z
		 M116.907,43.384c-0.017,0.003-0.036-0.047-0.056-0.073c0.051-0.021,0.102-0.05,0.152-0.057c0.018-0.003,0.041,0.046,0.061,0.069
		C117.012,43.346,116.96,43.374,116.907,43.384z M117.819,44.552c-0.041,0.017-0.102-0.036-0.153-0.055
		c0.032-0.053,0.051-0.131,0.093-0.147c0.037-0.016,0.094,0.03,0.144,0.049C117.877,44.453,117.858,44.535,117.819,44.552z
		 M118.348,42.046c-0.053-0.014-0.102-0.045-0.15-0.07c0.019-0.026,0.039-0.053,0.058-0.077c0.052,0.026,0.102,0.052,0.153,0.077
		C118.389,42.001,118.362,42.051,118.348,42.046z M118.901,42.285c-0.061-0.06-0.153-0.108-0.172-0.182
		c-0.018-0.062,0.052-0.154,0.162-0.431c0.082,0.209,0.15,0.303,0.145,0.396C119.035,42.143,118.95,42.213,118.901,42.285z
		 M120.585,40.266c-0.136,0.067-0.292,0.083-0.526,0.138c0.086-0.545,0.166-0.641,0.44-0.577c0.073,0.017,0.169,0.11,0.185,0.189
		C120.7,40.09,120.643,40.239,120.585,40.266z M121.697,43.97c-0.049-0.003-0.104-0.08-0.133-0.139
		c-0.011-0.021,0.055-0.086,0.106-0.166c0.058,0.064,0.112,0.123,0.167,0.182C121.79,43.892,121.742,43.973,121.697,43.97z
		 M122.631,40.821c-0.046-0.022-0.095-0.103-0.1-0.165c-0.017-0.163,0.166-0.355,0.287-0.302c0.044,0.018,0.065,0.107,0.095,0.163
		C122.908,40.708,122.755,40.882,122.631,40.821z M124.042,40.652c-0.023,0.005-0.062,0.025-0.069,0.014
		c-0.017-0.023-0.02-0.061-0.028-0.094c0.038-0.009,0.077-0.016,0.115-0.024C124.055,40.583,124.048,40.618,124.042,40.652z
		 M124.373,38.908c-0.01-0.027-0.032-0.059-0.028-0.083c0.004-0.025,0.034-0.046,0.054-0.067c0.01,0.03,0.02,0.058,0.029,0.082
		C124.41,38.864,124.39,38.887,124.373,38.908z M127.732,40.214c-0.045,0.115-0.145,0.202-0.262,0.349
		c-0.061-0.132-0.132-0.209-0.125-0.28c0.009-0.095,0.062-0.196,0.12-0.269c0.031-0.041,0.14-0.067,0.161-0.042
		C127.681,40.036,127.753,40.159,127.732,40.214z M128.629,40.196c-0.048-0.07-0.095-0.142-0.145-0.21
		c0.067-0.034,0.135-0.067,0.204-0.099c0.018,0.06,0.035,0.119,0.051,0.181C128.705,40.109,128.667,40.151,128.629,40.196z"/>
	<path fill-rule="evenodd" clip-rule="evenodd" fill="#FFFFFF" d="M52.892,32.759c0.092,0.096,0.16,0.213,0.249,0.313
		c0.117,0.135,0.216,0.303,0.372,0.385c0.474,0.251,0.398,0.729,0.621,1.08c0.016,0.022-0.026,0.083-0.058,0.11
		c-0.144,0.121-0.084,0.243,0.012,0.343c0.176,0.186,0.37,0.355,0.556,0.532c0.116,0.111,0.256,0.21,0.344,0.337
		c0.275,0.403,0.519,0.815,0.954,1.118c0.362,0.25,0.533,0.605,0.496,1.024c-0.032,0.406-0.022,0.8,0.293,1.141
		c0.065,0.069,0.074,0.186,0.09,0.286c0.043,0.256,0.171,0.461,0.445,0.575c0.236,0.101,0.302,0.263,0.313,0.488
		c0.008,0.191,0.098,0.381,0.16,0.569c0.04,0.124,0.127,0.241,0.135,0.364c0.023,0.373,0.22,0.679,0.408,1
		c0.095,0.159,0.167,0.344,0.179,0.521c0.028,0.384,0.184,0.727,0.531,0.927c0.577,0.331,0.785,0.744,0.667,1.343
		c-0.076,0.375,0.004,0.772-0.06,1.15c-0.051,0.307,0.018,0.59,0.031,0.884c0.023,0.476-0.061,0.964-0.155,1.438
		c-0.058,0.304-0.208,0.593-0.335,0.885c-0.073,0.17-0.137,0.371-0.279,0.486c-0.832,0.685-1.368,1.555-1.966,2.383
		c-0.251,0.346-0.523,0.648-0.902,0.881c-0.401,0.247-0.759,0.533-1.042,0.89c-0.184,0.231-0.385,0.436-0.675,0.596
		c-0.252,0.139-0.501,0.388-0.303,0.73c0.033,0.058,0.033,0.14,0.023,0.207c-0.142,0.943-0.574,1.809-0.953,2.689
		c-0.085,0.196-0.146,0.405-0.175,0.614c-0.033,0.268-0.029,0.54-0.027,0.81c0.003,0.095,0.027,0.204,0.084,0.284
		c0.246,0.35,0.52,0.687,0.755,1.044c0.127,0.191,0.273,0.417,0.271,0.625c-0.004,0.306-0.083,0.631-0.22,0.914
		c-0.245,0.51-0.157,0.978,0.123,1.43c0.26,0.42,0.305,0.873,0.323,1.326c0.011,0.294-0.191,0.425-0.538,0.431l-0.026,0.466
		c0.06,0.004,0.122,0.01,0.19,0.035c0.188,0.063,0.409,0.074,0.614,0.063c0.565-0.03,1.13-0.116,1.694-0.119
		c1.006-0.006,2.012,0.037,3.018,0.049c0.322,0.003,0.649-0.002,0.968-0.046c0.758-0.1,1.516-0.129,2.277-0.054
		c0.146,0.016,0.305,0.046,0.436,0.009c0.548-0.153,1.092-0.097,1.639-0.027c0.22,0.028,0.345-0.047,0.387-0.234
		c0.031-0.14,0.056-0.281,0.075-0.423c0.174-1.423,0.386-2.841,0.509-4.268c0.198-2.295,0.359-4.592,0.491-6.892
		c0.081-1.414,0.111-2.832,0.106-4.246c-0.023-5.394,0.076-10.787-0.068-16.18c-0.065-2.432-0.117-4.862-0.19-7.292
		c-0.066-2.244-0.153-4.489-0.195-6.731c-0.052-2.903,0.04-5.807,0.074-8.709c0.008-0.551,0.1-0.648,0.732-0.705
		c1.115-0.101,2.234-0.122,3.345,0.066c0.14,0.024,0.283,0.066,0.409,0.127c0.777,0.386,1.55,0.772,2.313,1.177
		c0.157,0.084,0.307,0.226,0.377,0.37c0.442,0.908,0.881,1.817,1.281,2.739c0.965,2.216,1.909,4.442,2.87,6.66
		c0.095,0.226,0.248,0.432,0.376,0.647l0,0c0.128-0.055,0.251-0.127,0.385-0.158c0.331-0.073,0.667-0.12,0.999-0.192
		c0.374-0.083,0.743-0.218,1.124-0.266c0.612-0.077,1.152-0.281,1.664-0.571c0.135-0.079,0.276-0.148,0.418-0.216
		c0.634-0.285,1.271-0.564,1.901-0.856c0.245-0.112,0.467-0.26,0.707-0.377c1.29-0.632,2.629-1.171,3.843-1.93
		c1.153-0.722,2.457-1.223,3.739-1.748c0.53-0.217,1.044-0.463,1.563-0.703c0.11-0.05,0.206-0.127,0.348-0.219
		c-0.306-0.457-0.575-0.914-0.899-1.336c-0.743-0.972-1.536-1.916-2.27-2.895c-1.252-1.669-2.911-2.999-4.622-4.271
		c-1.017-0.754-2.134-1.404-3.216-2.087c-0.953-0.604-1.958-1.11-3.099-1.409c-3.031-0.791-6.11-1.36-9.258-1.625
		c-1.358-0.115-2.716-0.213-4.076-0.325c-1.36-0.115-2.724-0.15-4.087-0.085c-1.912,0.094-3.823,0.213-5.734,0.335
		c-0.824,0.054-1.647,0.145-2.474,0.206c-0.548,0.042-0.761,0.292-0.73,0.869c0.015,0.255,0.06,0.513,0.055,0.767
		c-0.004,0.252,0.051,0.472,0.205,0.69c0.152,0.216,0.311,0.449,0.234,0.723c-0.064,0.225-0.008,0.42,0.112,0.618
		c0.216,0.349,0.287,0.722,0.249,1.119c-0.024,0.227,0.006,0.457,0.018,0.685c0.018,0.349,0.21,0.588,0.575,0.729
		c0.356,0.139,0.707,0.291,1.055,0.446c0.212,0.093,0.442,0.184,0.455,0.441l-2.716,5.656c0.23-0.028,0.327,0.087,0.295,0.24
		c-0.063,0.306-0.155,0.611-0.277,0.903c-0.111,0.267-0.298,0.509-0.409,0.778c-0.062,0.148-0.1,0.351-0.036,0.485
		c0.132,0.27,0.114,0.521,0.072,0.797c-0.081,0.508-0.209,1.025-0.177,1.53c0.046,0.646,0.093,1.28-0.053,1.918
		c-0.034,0.135-0.035,0.299,0.025,0.421c0.149,0.292,0.192,0.57,0.037,0.865c-0.023,0.047-0.029,0.127,0.001,0.165
		c0.145,0.19,0.054,0.364-0.037,0.529c-0.238,0.441-0.232,0.891-0.058,1.337c0.203,0.513,0.11,0.985-0.18,1.441
		c-0.114,0.18-0.179,0.347-0.128,0.566c0.034,0.153-0.045,0.329-0.085,0.49c-0.021,0.096-0.105,0.195-0.09,0.282
		c0.074,0.384-0.092,0.618-0.494,0.78c-0.311,0.125-0.368,0.327-0.23,0.608c0.088,0.18,0.21,0.346,0.333,0.542
		c-0.262,0.044-0.528,0.087-0.624,0.341c-0.136,0.364-0.346,0.723-0.386,1.095c-0.064,0.614-0.138,1.257,0.393,1.836
		C52.193,32.199,52.568,32.425,52.892,32.759z M54.363,54.942l0.017-0.025l0.016,0.025H54.363z M51.979,31.209
		c0.015,0.014,0.029,0.028,0.043,0.042c-0.014,0.004-0.027,0.014-0.04,0.014c-0.01-0.002-0.017-0.017-0.027-0.026
		C51.962,31.23,51.972,31.221,51.979,31.209z M51.557,31.338l-0.028-0.019l0.035-0.012L51.557,31.338z"/>
	<path fill-rule="evenodd" clip-rule="evenodd" fill="#FFFFFF" d="M192.549,66.554c-0.972-0.196-1.325-0.578-1.39-1.735
		c-0.104-1.879-0.182-3.766-0.174-5.654c0.037-9.162,0.082-18.323,0.165-27.488c0.065-7.201,0.182-14.405,0.294-21.609
		c0.034-2.254,0.121-4.512,0.196-6.769c0.013-0.435,0.056-0.875,0.136-1.304c0.107-0.563,0.432-0.896,0.904-0.96
		c0.298-0.041,0.599-0.037,0.898-0.03c2.396,0.043,4.793,0.093,7.188,0.134c1.113,0.019,1.384,0.308,1.341,1.652
		c-0.073,2.404-0.225,4.809-0.273,7.209c-0.109,5.456-0.225,10.916-0.248,16.368c-0.023,5.234,0.029,10.465,0.119,15.69
		c0.043,2.757,0.218,5.501,0.362,8.247c0.257,4.779,0.173,9.579,0.044,14.385c-0.006,0.289-0.035,0.583-0.085,0.87
		c-0.118,0.69-0.411,1.066-0.963,1.175c-0.356,0.072-0.722,0.099-1.079,0.088c-2.217-0.063-4.434-0.146-6.647-0.223
		C193.039,66.587,192.742,66.565,192.549,66.554z"/>
	<g>
		<path fill="#FFFFFF" d="M217.792,37.706c0.012-0.042,0.044-0.108,0.028-0.126c-0.053-0.061-0.123-0.107-0.189-0.16
			c-0.014,0.042-0.051,0.109-0.038,0.123C217.651,37.606,217.726,37.653,217.792,37.706z"/>
		<path fill="#FFFFFF" d="M218.325,38.534c-0.043-0.071-0.103-0.133-0.158-0.196c-0.017,0.041-0.035,0.083-0.054,0.126
			c0.057,0.062,0.109,0.122,0.16,0.184C218.294,38.607,218.337,38.555,218.325,38.534z"/>
		<path fill="#FFFFFF" d="M219.58,40.585c-0.23-0.537-0.42-1.103-1.245-1.288c0.243,0.487,0.4,0.863,0.609,1.209
			C219.08,40.729,219.294,40.863,219.58,40.585z"/>
		<path fill="#FFFFFF" d="M215.83,34.222c-0.094-0.163-0.186-0.324-0.281-0.482c-0.014,0.006-0.026,0.014-0.037,0.022
			c0.092,0.161,0.187,0.321,0.279,0.482C215.803,34.236,215.817,34.229,215.83,34.222z"/>
		<path fill="#FFFFFF" d="M214.486,33.606c-0.115-0.199-0.234-0.399-0.35-0.598c-0.023,0.014-0.045,0.027-0.067,0.041
			c0.115,0.199,0.232,0.398,0.349,0.598C214.44,33.635,214.462,33.621,214.486,33.606z"/>
		<path fill="#FFFFFF" d="M213.203,33.769c0,0.043-0.004,0.086-0.007,0.13c0.032,0.036,0.066,0.069,0.101,0.107
			c0.002-0.046,0.018-0.097,0.003-0.132C213.283,33.831,213.236,33.803,213.203,33.769z"/>
		<path fill="#FFFFFF" d="M212.48,35.049c0.164,0.239,0.328,0.478,0.494,0.715c0.035-0.023,0.068-0.046,0.106-0.072
			c-0.14-0.238-0.278-0.476-0.417-0.714C212.602,35.003,212.541,35.026,212.48,35.049z"/>
		<path fill="#FFFFFF" d="M210.277,29.352c-0.01,0.044-0.035,0.104-0.019,0.132c0.052,0.076,0.12,0.139,0.183,0.204
			c0.008-0.045,0.037-0.105,0.021-0.131C210.41,29.481,210.339,29.419,210.277,29.352z"/>
		<polygon fill="#FFFFFF" points="208.089,25.688 208.165,25.653 208.076,25.567 		"/>
		<path fill="#FFFFFF" d="M208.709,26.759c0.034,0.022,0.067,0.046,0.099,0.069c-0.029-0.064-0.06-0.129-0.091-0.192
			C208.714,26.676,208.712,26.716,208.709,26.759z"/>
		<path fill="#FFFFFF" d="M209.308,27.802c0.021-0.042,0.041-0.083,0.062-0.123c-0.031,0-0.062,0.001-0.092,0.004
			C209.288,27.723,209.299,27.762,209.308,27.802z"/>
		<path fill="#FFFFFF" d="M223.82,40.243c0.045,0.102,0.207,0.156,0.385,0.283c0.023-0.221,0.099-0.406,0.044-0.466
			c-0.477-0.531-0.833-1.108-1.063-1.8c-0.16-0.468-0.52-0.874-1.074-1.158c0.027,0.242,0.008,0.435,0.07,0.601
			C222.544,38.667,223.416,39.298,223.82,40.243z"/>
		<path fill="#FFFFFF" d="M215.137,40.645c0.029,0.026,0.06,0.055,0.091,0.081c0.02-0.022,0.058-0.042,0.055-0.065
			c0-0.039-0.025-0.078-0.041-0.117C215.208,40.577,215.171,40.609,215.137,40.645z"/>
		<path fill="#FFFFFF" d="M221.651,36.106c-0.028,0.006-0.056,0.011-0.087,0.017c0.01,0.037,0.018,0.071,0.025,0.108
			C221.611,36.19,221.631,36.149,221.651,36.106z"/>
		<path fill="#FFFFFF" d="M221.077,34.738c-0.084-0.017-0.169-0.033-0.251-0.051c-0.006,0.046-0.012,0.089-0.016,0.135
			c0.08,0.014,0.162,0.031,0.244,0.037C221.062,34.858,221.069,34.78,221.077,34.738z"/>
		<path fill="#FFFFFF" d="M231.65,55.254c0.042,0.073,0.084,0.146,0.131,0.22c0.002,0,0.047-0.029,0.072-0.043
			c-0.042-0.073-0.085-0.148-0.127-0.221C231.699,55.225,231.675,55.239,231.65,55.254z"/>
		<path fill="#FFFFFF" d="M226.957,46.845c-0.239-0.429-0.561-0.47-0.902-0.574l0,0c-0.004,0.006-0.004,0.015-0.008,0.021
			c0.027,0.043,0.051,0.086,0.08,0.128c0.52,0.813,1.117,1.576,1.634,2.394c0.587,0.939,1.123,1.91,1.618,2.928
			c-0.203-0.257-0.383-0.544-0.617-0.763c-0.047-0.047-0.105-0.089-0.166-0.129c-0.042,0.247,0.119,0.582,0.266,0.828
			c0.259,0.439,0.577,0.842,0.866,1.261c0.12,0.169,0.221,0.369,0.483,0.142c-0.152-0.516-0.221-1.101-0.488-1.572
			C228.834,49.935,227.845,48.418,226.957,46.845z"/>
		<polygon fill="#FFFFFF" points="232.06,58.43 232.144,58.332 232.021,58.336 		"/>
		<path fill="#FFFFFF" d="M225.284,44.951c0.305,0.522,0.521,0.894,0.731,1.254C226.155,45.673,225.88,45.336,225.284,44.951z"/>
		<path fill="#FFFFFF" d="M234.255,56.604c-0.029,0.066-0.062,0.132-0.092,0.196c0.08,0.057,0.156,0.115,0.23,0.177
			c0.012-0.048,0.046-0.111,0.029-0.142C234.38,56.751,234.314,56.68,234.255,56.604z"/>
		<path fill="#FFFFFF" d="M233.113,53.738c-1.203-1.676-2.424-3.339-3.455-5.138c-0.488-0.848-1.016-1.679-1.552-2.5
			c-1.046-1.597-2.108-3.182-3.18-4.761c-0.091-0.135-0.301-0.184-0.681-0.404c0.224,0.505,0.316,0.785,0.461,1.032
			c0.26,0.445,0.62,0.84,0.814,1.305c0.562,1.335,1.264,2.598,1.994,3.839c0.812,1.376,1.724,2.693,2.588,4.038
			c0.279,0.435,0.547,0.839,1.033,1.107c0.484,0.268,0.873,0.717,0.9,1.354c0.016,0.438,0.271,0.605,0.641,0.739
			c0.426,0.155,0.704,0.436,0.372,0.917c0.114,0.064,0.257,0.204,0.335,0.176c0.409-0.144,0.539-0.459,0.339-0.806
			C233.542,54.323,233.324,54.03,233.113,53.738z"/>
		<path fill="#FFFFFF" d="M232.338,56.286c0.02,0.117,0.02,0.24,0.064,0.346c0.021,0.048,0.127,0.063,0.276,0.129
			c-0.095-0.207-0.145-0.331-0.21-0.446C232.455,56.288,232.382,56.295,232.338,56.286z"/>
		<path fill="#FFFFFF" d="M221.865,49.722c-0.002,0.088-0.03,0.19,0.004,0.261c0.037,0.082,0.132,0.134,0.202,0.199
			c0.013-0.108,0.056-0.225,0.022-0.322C222.072,49.797,221.946,49.767,221.865,49.722z"/>
		<path fill="#FFFFFF" d="M226.009,46.23c0.004,0.012,0.012,0.021,0.018,0.032c0.008,0.002,0.018,0.006,0.027,0.009
			c-0.012-0.022-0.027-0.045-0.039-0.066C226.013,46.214,226.011,46.223,226.009,46.23z"/>
		<path fill="#FFFFFF" d="M224.256,50.749c0.238,0.223,0.42,0.513,0.626,0.774c-0.502-1.031-1.045-2.019-1.645-2.97
			c-0.521-0.829-1.127-1.603-1.656-2.427c-0.555-0.87-1.066-1.767-1.588-2.66c-0.299-0.51-0.65-0.948-1.419-1.376
			c0.412,0.858,0.698,1.453,1.097,2.281c-0.288-0.096-0.462-0.099-0.516-0.181c-0.344-0.515-0.683-1.036-0.982-1.578
			c-1.02-1.857-2.02-3.721-3.027-5.583c-0.074-0.135-0.129-0.283-0.214-0.414c-0.28-0.433-0.646-0.634-1.134-0.494
			c0.484,1.022,0.77,2.12,1.403,3.083c0.333,0.509,0.569,1.099,0.776,1.674c0.27,0.749,0.599,1.444,1.291,1.859
			c0.377,0.227,0.594,0.527,0.746,0.936c0.101,0.275,0.302,0.515,0.443,0.78c0.142,0.261,0.279,0.528,0.396,0.801
			c0.1,0.232,0.127,0.504,0.258,0.714c0.611,0.987,1.346,1.873,2.217,2.814c0.086-1.483-1.148-2.321-1.525-3.854
			c0.439,0.477,0.666,0.672,0.832,0.913c0.438,0.638,0.9,1.269,1.26,1.953c0.431,0.827,1.205,1.4,1.532,2.314
			C223.527,50.378,223.998,50.505,224.256,50.749z M219.84,44.725c-0.036-0.025-0.072-0.052-0.108-0.078
			c0.004-0.043,0.005-0.086,0.008-0.128c0.033,0.024,0.084,0.043,0.101,0.076C219.857,44.63,219.841,44.681,219.84,44.725z"/>
		<path fill="#FFFFFF" d="M222.059,48.874c-0.055,0.03-0.11,0.063-0.166,0.096c0.12,0.204,0.235,0.409,0.36,0.608
			c0.018,0.031,0.096,0.054,0.121,0.038c0.027-0.016,0.055-0.093,0.039-0.122C222.302,49.283,222.178,49.079,222.059,48.874z"/>
		<path fill="#FFFFFF" d="M224.722,43.749c-0.019,0.022-0.055,0.047-0.053,0.065c0.012,0.042,0.041,0.076,0.062,0.115
			c0.029-0.032,0.058-0.066,0.085-0.099C224.787,43.802,224.753,43.775,224.722,43.749z"/>
		<path fill="#FFFFFF" d="M224.487,53.097c-0.075-0.072-0.271-0.012-0.41-0.022c-0.231-0.514-0.474-1.023-0.688-1.544
			c-0.076-0.177-0.094-0.377-0.143-0.563c-0.039-0.055-0.075-0.109-0.112-0.163c0.033,0.062,0.065,0.125,0.097,0.189
			c-0.004,0.227-0.084,0.491,0.008,0.675c0.242,0.491,0.557,0.948,0.842,1.417c0.166,0.187,0.357,0.356,0.494,0.562
			c0.375,0.558,0.715,1.139,1.097,1.689c0.107,0.154,0.315,0.264,0.404,0.029c-0.275-0.471-0.509-0.924-0.792-1.341
			C225.052,53.691,224.775,53.384,224.487,53.097z"/>
		<path fill="#FFFFFF" d="M235.614,56.018c-0.473-0.803-0.94-1.607-1.417-2.406c-0.16-0.266-0.324-0.533-0.52-0.775
			c-2.079-2.592-3.854-5.404-5.619-8.22c-2.506-4.003-5.019-7.999-7.264-12.166c-2.119-3.935-4.42-7.767-6.543-11.699
			c-2.865-5.308-5.84-10.542-9.402-15.413c-0.484-0.66-1.008-1.298-1.561-1.896c-0.184-0.201-0.52-0.26-0.793-0.357
			c-0.035-0.014-0.113,0.12-0.211,0.234c0.295,0.24,0.586,0.476,0.869,0.707c-0.227,0.414-0.639,0.419-0.787,0.224
			c-0.458-0.604-1.112-0.245-1.658-0.541c-0.035-0.733-0.221-1.403-0.77-1.992c-0.555,0.27-1.102,0.435-1.188,1.161
			c-0.014,0.107-0.16,0.269-0.246,0.262c-0.447-0.041-0.521,0.292-0.693,0.6c-0.283,0.506-0.717,0.917-0.683,1.595
			c0.009,0.132-0.068,0.302-0.163,0.384c-0.734,0.643-0.91,1.569-1.098,2.545c0.402,0.571,0.855,1.137,1.23,1.754
			c0.832,1.369,2.074,4.276,2.689,6.215c0.141,0.446,0.43,0.736,0.825,0.84c0.849,0.231,1.292,0.862,1.735,1.599
			c0.346,0.576,0.552,1.343,1.337,1.553c0.115,0.031,0.221,0.207,0.3,0.335c0.432,0.71,0.861,1.42,1.275,2.139
			c0.074,0.128,0.072,0.301,0.165,0.729c-0.827-0.897-0.944-1.927-1.681-2.509c-0.07,0.055-0.143,0.081-0.141,0.113
			c-0.003,0.191-0.03,0.396,0.031,0.574c0.182,0.535,0.391,1.062,0.608,1.584c0.139,0.335,0.293,0.667,0.476,0.979
			c0.631,1.07,1.273,2.134,1.918,3.199c0.07,0.118,0.189,0.211,0.285,0.314c-0.025-0.33-0.284-0.598-0.281-0.844
			c0.009-0.949-0.541-1.631-1.01-2.366c-0.051-0.078,0.035-0.249,0.079-0.492c0.212,0.224,0.396,0.343,0.463,0.51
			c0.38,0.949,1.005,1.792,1.214,2.821c0.09,0.443,0.301,0.893,0.545,1.282c0.631,1.011,1.315,1.981,1.682,3.14
			c0.09,0.278,0.361,0.499,0.523,0.763c0.374,0.612,0.801,1.209,1.071,1.865c0.224,0.54,0.432,1.048,0.888,1.419
			c0.329,0.267,0.564,0.594,0.67,1.018c0.307,1.216,0.963,2.276,1.547,3.367c0.271,0.502,0.621,0.921,1.079,1.291
			c0.408,0.33,0.938,0.658,0.954,1.33c0.01,0.313,0.285,0.387,0.496,0.521c0.165,0.103,0.402,0.228,0.441,0.378
			c0.246,0.951,0.951,1.698,1.154,2.68c0.12,0.589,0.396,1.178,0.699,1.711c0.373,0.665,0.947,1.2,1.186,1.971
			c0.076,0.243,0.417,0.421,0.646,0.615c0.543,0.458,1.172,0.836,1.625,1.374c1.193,1.418,2.308,2.905,3.485,4.401
			c0.204,0.002,0.439,0.005,0.722,0.01c0.324,0.346,0.639,0.768,1.027,1.087c0.379,0.308,0.43,0.942,1.028,1.124
			c-0.376-1.017-1.47-1.659-1.241-2.949c0.543,0.359,0.778,0.839,1.014,1.273c0.285,0.525,0.693,0.208,1.032,0.334
			c0.511,0.774,1.017,1.544,1.589,2.417c0.309-0.028,0.598,0.027,0.781-0.086c1.175-0.731,2.346-1.471,3.474-2.272
			C235.957,57.055,235.935,56.569,235.614,56.018z M208.089,25.688l-0.014-0.12l0.089,0.086L208.089,25.688z M208.709,26.759
			c0.003-0.042,0.005-0.083,0.008-0.123c0.031,0.063,0.062,0.128,0.091,0.192C208.777,26.805,208.744,26.781,208.709,26.759z
			 M209.308,27.802c-0.009-0.04-0.021-0.079-0.029-0.119c0.029-0.002,0.061-0.003,0.092-0.004
			C209.349,27.719,209.33,27.76,209.308,27.802z M210.441,29.688c-0.062-0.065-0.131-0.128-0.183-0.204
			c-0.017-0.028,0.009-0.088,0.019-0.132c0.062,0.068,0.133,0.129,0.186,0.205C210.478,29.583,210.449,29.642,210.441,29.688z
			 M223.185,38.259c0.23,0.692,0.587,1.269,1.063,1.8c0.055,0.061-0.021,0.245-0.044,0.466c-0.178-0.127-0.34-0.181-0.385-0.283
			c-0.404-0.945-1.275-1.577-1.639-2.541c-0.062-0.167-0.043-0.359-0.07-0.601C222.666,37.385,223.025,37.791,223.185,38.259z
			 M221.651,36.106c-0.02,0.042-0.04,0.084-0.062,0.125c-0.008-0.037-0.016-0.071-0.025-0.108
			C221.595,36.118,221.623,36.112,221.651,36.106z M220.826,34.687c0.082,0.018,0.167,0.034,0.251,0.051
			c-0.008,0.042-0.015,0.121-0.022,0.121c-0.082-0.005-0.164-0.022-0.244-0.037C220.814,34.776,220.82,34.733,220.826,34.687z
			 M219.58,40.585c-0.285,0.278-0.5,0.143-0.636-0.078c-0.209-0.347-0.366-0.722-0.609-1.209
			C219.16,39.482,219.349,40.049,219.58,40.585z M218.167,38.337c0.056,0.063,0.115,0.125,0.158,0.196
			c0.013,0.021-0.03,0.074-0.052,0.114c-0.051-0.062-0.104-0.123-0.16-0.184C218.131,38.42,218.15,38.378,218.167,38.337z
			 M217.63,37.42c0.066,0.052,0.137,0.099,0.189,0.16c0.016,0.018-0.017,0.084-0.028,0.126c-0.065-0.053-0.141-0.1-0.199-0.163
			C217.58,37.529,217.617,37.462,217.63,37.42z M215.548,33.74c0.096,0.159,0.188,0.319,0.281,0.482
			c-0.013,0.007-0.026,0.014-0.039,0.022c-0.093-0.161-0.188-0.322-0.279-0.482C215.522,33.754,215.535,33.746,215.548,33.74z
			 M214.136,33.008c0.115,0.199,0.234,0.399,0.35,0.598c-0.023,0.014-0.046,0.028-0.068,0.041c-0.116-0.199-0.233-0.399-0.349-0.598
			C214.091,33.036,214.113,33.022,214.136,33.008z M212.974,35.764c-0.166-0.237-0.33-0.476-0.494-0.715
			c0.061-0.023,0.122-0.046,0.184-0.071c0.139,0.238,0.277,0.476,0.417,0.714C213.042,35.718,213.009,35.741,212.974,35.764z
			 M213.296,34.005c-0.034-0.038-0.068-0.071-0.101-0.107c0.003-0.043,0.007-0.087,0.007-0.13c0.033,0.034,0.08,0.062,0.097,0.104
			C213.314,33.908,213.298,33.959,213.296,34.005z M215.228,40.726c-0.031-0.026-0.062-0.055-0.091-0.081
			c0.034-0.035,0.071-0.068,0.104-0.101c0.016,0.04,0.041,0.079,0.041,0.117C215.286,40.684,215.248,40.704,215.228,40.726z
			 M222.071,50.182c-0.07-0.065-0.165-0.117-0.202-0.199c-0.034-0.071-0.006-0.173-0.004-0.261c0.081,0.045,0.207,0.076,0.229,0.138
			C222.126,49.957,222.083,50.073,222.071,50.182z M222.375,49.616c-0.025,0.016-0.104-0.007-0.121-0.038
			c-0.125-0.199-0.24-0.405-0.36-0.608c0.056-0.033,0.111-0.065,0.166-0.096c0.119,0.206,0.243,0.41,0.354,0.62
			C222.429,49.522,222.402,49.6,222.375,49.616z M221.896,47.795c-0.359-0.684-0.822-1.315-1.26-1.953
			c-0.166-0.241-0.393-0.436-0.832-0.913c0.377,1.534,1.611,2.372,1.525,3.854c-0.871-0.942-1.605-1.828-2.217-2.814
			c-0.131-0.21-0.158-0.482-0.258-0.714c-0.117-0.272-0.255-0.54-0.396-0.801c-0.142-0.265-0.343-0.505-0.443-0.78
			c-0.152-0.409-0.369-0.709-0.746-0.936c-0.692-0.416-1.021-1.111-1.291-1.859c-0.207-0.576-0.443-1.166-0.776-1.674
			c-0.634-0.963-0.919-2.061-1.403-3.083c0.488-0.14,0.854,0.061,1.134,0.494c0.085,0.13,0.14,0.278,0.214,0.414
			c1.008,1.862,2.008,3.725,3.027,5.583c0.3,0.542,0.639,1.063,0.982,1.578c0.054,0.083,0.228,0.085,0.516,0.181
			c-0.398-0.829-0.685-1.423-1.097-2.281c0.769,0.428,1.12,0.867,1.419,1.376c0.521,0.894,1.033,1.791,1.588,2.66
			c0.529,0.825,1.136,1.598,1.656,2.427c0.6,0.951,1.143,1.939,1.645,2.97c-0.206-0.262-0.388-0.552-0.626-0.774
			c-0.259-0.243-0.729-0.371-0.828-0.64C223.101,49.195,222.327,48.622,221.896,47.795z M224.669,43.814
			c-0.002-0.019,0.034-0.043,0.053-0.065c0.031,0.027,0.064,0.054,0.094,0.082c-0.027,0.033-0.056,0.066-0.085,0.099
			C224.71,43.89,224.681,43.855,224.669,43.814z M225.67,55.338c-0.382-0.55-0.722-1.131-1.097-1.689
			c-0.137-0.207-0.328-0.375-0.494-0.562c-0.285-0.47-0.6-0.927-0.842-1.417c-0.092-0.184-0.012-0.449-0.008-0.675
			c-0.031-0.064-0.063-0.127-0.097-0.189c0.037,0.054,0.073,0.108,0.112,0.163c0.049,0.186,0.066,0.386,0.143,0.563
			c0.215,0.521,0.457,1.03,0.688,1.544c0.14,0.01,0.335-0.05,0.41,0.022c0.288,0.287,0.565,0.594,0.796,0.929
			c0.283,0.417,0.517,0.87,0.792,1.341C225.986,55.603,225.778,55.493,225.67,55.338z M229.727,52.939
			c-0.289-0.419-0.607-0.822-0.866-1.261c-0.146-0.247-0.308-0.581-0.266-0.828c0.061,0.04,0.119,0.083,0.166,0.129
			c0.234,0.218,0.414,0.506,0.617,0.763c-0.495-1.018-1.031-1.989-1.618-2.928c-0.517-0.818-1.114-1.581-1.634-2.394
			c-0.029-0.042-0.053-0.085-0.08-0.128c0.004-0.006,0.004-0.014,0.008-0.021l0,0c-0.01-0.003-0.02-0.007-0.027-0.009
			c-0.006-0.01-0.014-0.02-0.018-0.032c0.002-0.007,0.004-0.016,0.006-0.025c-0.21-0.36-0.427-0.731-0.731-1.254
			c0.597,0.386,0.871,0.723,0.731,1.254c0.012,0.021,0.027,0.044,0.039,0.066c0.342,0.104,0.663,0.145,0.902,0.574
			c0.889,1.573,1.878,3.09,2.766,4.664c0.268,0.471,0.336,1.056,0.488,1.572C229.948,53.308,229.847,53.108,229.727,52.939z
			 M231.781,55.474c-0.047-0.074-0.089-0.147-0.131-0.22c0.025-0.015,0.049-0.029,0.076-0.044c0.042,0.073,0.085,0.147,0.127,0.221
			C231.828,55.445,231.783,55.474,231.781,55.474z M232.06,58.43l-0.039-0.094l0.123-0.004L232.06,58.43z M232.403,56.632
			c-0.045-0.106-0.045-0.229-0.064-0.346c0.044,0.009,0.116,0.001,0.131,0.029c0.065,0.115,0.115,0.239,0.21,0.446
			C232.53,56.696,232.423,56.68,232.403,56.632z M233.384,55.441c-0.078,0.028-0.221-0.112-0.335-0.176
			c0.332-0.481,0.054-0.762-0.372-0.917c-0.369-0.134-0.625-0.301-0.641-0.739c-0.027-0.637-0.416-1.086-0.9-1.354
			c-0.486-0.268-0.754-0.672-1.033-1.107c-0.864-1.345-1.776-2.662-2.588-4.038c-0.73-1.241-1.432-2.503-1.994-3.839
			c-0.194-0.465-0.555-0.86-0.814-1.305c-0.145-0.247-0.237-0.527-0.461-1.032c0.38,0.221,0.59,0.27,0.681,0.404
			c1.071,1.579,2.134,3.165,3.18,4.761c0.536,0.821,1.063,1.652,1.552,2.5c1.031,1.799,2.252,3.462,3.455,5.138
			c0.211,0.292,0.429,0.585,0.61,0.896C233.923,54.981,233.793,55.297,233.384,55.441z M234.394,56.977
			c-0.074-0.062-0.15-0.12-0.23-0.177c0.03-0.064,0.062-0.13,0.092-0.196c0.059,0.076,0.125,0.147,0.168,0.231
			C234.44,56.866,234.406,56.929,234.394,56.977z"/>
		<path fill="#FFFFFF" d="M219.74,44.519c-0.003,0.042-0.004,0.085-0.008,0.128c0.036,0.025,0.072,0.053,0.108,0.078
			c0.001-0.043,0.017-0.094,0-0.129C219.824,44.562,219.773,44.543,219.74,44.519z"/>
	</g>
	<path fill-rule="evenodd" clip-rule="evenodd" fill="#FFFFFF" d="M101.688,66.399c0.076-0.798,0.142-1.509,0.21-2.219
		c0.078-0.846,0.156-1.692,0.239-2.537c0.022-0.237,0.068-0.473,0.104-0.708c0.042-0.263,0.142-0.533,0.121-0.786
		c-0.079-0.923,0.15-1.792,0.358-2.669c0.09-0.385,0.162-0.762-0.006-1.162c-0.162-0.388,0.044-0.766,0.199-1.13
		c0.098-0.23,0.145-0.486,0.211-0.733c0.046-0.174,0.044-0.391,0.137-0.523c0.542-0.777,0.62-1.713,0.792-2.625
		c0.059-0.325,0.193-0.65,0.351-0.932c0.138-0.245,0.32-0.419,0.31-0.767c-0.006-0.205,0.135-0.44,0.252-0.626
		c0.339-0.551,0.672-1.086,0.717-1.798c0.017-0.249,0.162-0.499,0.27-0.734c0.888-1.891,1.777-3.783,2.676-5.666
		c0.157-0.327,0.334-0.651,0.549-0.929c0.416-0.539,0.36-1.224,0.534-1.837c0.292-1.02,0.624-2.023,0.95-3.029
		c0.498-1.542,0.857-3.115,1-4.748c0.132-1.51,0.305-3.018,0.46-4.527c0.014-0.159,0.005-0.333,0.058-0.474
		c0.33-0.856,0.026-1.646-0.09-2.455c-0.076-0.519-0.133-1.041-0.234-1.55c-0.329-1.641-0.618-3.299-1.034-4.907
		c-0.392-1.509-0.918-2.965-1.398-4.435c-0.273-0.832-0.572-1.654-0.869-2.473c-0.088-0.24-0.217-0.455-0.323-0.683
		c-0.13-0.275-0.276-0.543-0.37-0.836c-0.034-0.107,0.059-0.275,0.094-0.416c0.111,0.038,0.3,0.042,0.323,0.117
		c0.071,0.262,0.217,0.238,0.375,0.175c0.495-0.201,0.952-0.246,1.499-0.146c0.808,0.145,1.67-0.052,2.51-0.108
		c0.295-0.019,0.591-0.086,0.883-0.068c2.312,0.141,4.622,0.301,6.934,0.453c0.204,0.015,0.411,0.046,0.612,0.016
		c0.794-0.122,1.298,0.319,1.638,1.081c0.467,1.045,0.924,2.099,1.382,3.151c0.129,0.304,0.239,0.624,0.366,0.931
		c0.699,1.695,1.157,3.459,1.173,5.397c0.016,1.992,0.116,3.98,0.203,5.968c0.087,1.973-0.267,3.872-0.854,5.727
		c-0.328,1.035-0.669,2.063-1.043,3.076c-1.761,4.74-3.499,9.494-5.63,14.042c-1.832,3.904-2.947,8.058-3.496,12.403
		c-0.243,1.923-0.416,3.86-0.61,5.79c-0.081,0.805-0.244,1.009-0.975,0.998c-1.454-0.016-2.907-0.077-4.362-0.08
		c-2.115-0.005-4.23,0.024-6.346,0.034C102.274,66.442,102.012,66.415,101.688,66.399z"/>
	<path fill-rule="evenodd" clip-rule="evenodd" fill="#FFFFFF" d="M137.656,65.748c0.037,0.122,0.078,0.241,0.12,0.358
		c0.44,0.009,0.886,0.087,1.331,0.138c0.127,0.014,0.254,0.083,0.379,0.063c0.562-0.087,1.127-0.083,1.697-0.042
		c-0.752-2.352-1.527-4.708-2.269-7.057c-1.728-5.477-3.457-10.953-5.153-16.423c-1.631-5.249-3.235-10.494-4.826-15.733
		c-0.84-2.766-1.634-5.514-2.438-8.267c-1.396-4.787-2.912-9.603-4.444-14.426c-0.093-0.291-0.192-0.586-0.297-0.874
		c-0.253-0.695-0.466-1.074-0.68-1.195c-0.138-0.078-0.267-0.112-0.38-0.107c-0.707,0.025-1.406,0.068-2.105,0.107
		c-0.095,0.004-0.186,0.023-0.246,0.031c-0.257,0.178-0.255,0.556,0.083,1.718c0.547,1.882,1.108,3.772,1.696,5.667
		c2.852,9.188,5.707,18.377,8.574,27.571c2.252,7.225,4.526,14.451,6.795,21.68C136.205,61.219,136.932,63.485,137.656,65.748z"/>
	<path fill-rule="evenodd" clip-rule="evenodd" fill="#FFFFFF" d="M122.06,1.885c-0.527,0.326-0.611,0.75-0.247,1.902
		c0.587,1.865,1.197,3.737,1.856,5.598c3.2,9.03,6.405,18.056,9.637,27.083c2.536,7.092,5.108,14.18,7.676,21.269
		c0.803,2.219,1.641,4.432,2.468,6.647c0.159,0.428,0.339,0.858,0.537,1.267c0.26,0.543,0.573,0.826,0.885,0.826
		c0.196,0,0.38-0.046,0.56-0.094c1.45-0.364,2.896-0.738,4.348-1.106c0.675-0.171,0.738-0.491,0.246-1.812
		c-0.877-2.358-1.807-4.71-2.668-7.069c-1.961-5.366-3.924-10.734-5.828-16.107c-1.834-5.156-3.613-10.321-5.373-15.488
		c-0.93-2.725-1.775-5.454-2.641-8.182c-1.5-4.746-3.217-9.468-4.963-14.189c-0.104-0.285-0.225-0.569-0.354-0.846
		c-0.311-0.664-0.622-0.995-0.995-1.027c-0.243-0.021-0.478,0-0.69,0.059c-1.334,0.365-2.659,0.745-3.986,1.123
		C122.347,1.786,122.172,1.851,122.06,1.885z"/>
	<path fill-rule="evenodd" clip-rule="evenodd" fill="#FFFFFF" d="M202.882,73.978c0.873,0.197,1.189,0.58,1.248,1.748
		c0.094,1.889,0.162,3.788,0.154,5.688c-0.031,9.22-0.072,18.438-0.146,27.658c-0.06,7.246-0.163,14.494-0.263,21.742
		c-0.032,2.27-0.108,4.541-0.177,6.812c-0.013,0.438-0.051,0.881-0.123,1.312c-0.096,0.567-0.386,0.901-0.809,0.968
		c-0.268,0.04-0.539,0.033-0.807,0.028c-2.148-0.041-4.295-0.091-6.444-0.134c-0.996-0.02-1.238-0.309-1.202-1.662
		c0.067-2.418,0.202-4.838,0.246-7.254c0.098-5.49,0.201-10.982,0.223-16.469c0.02-5.269-0.027-10.531-0.105-15.787
		c-0.041-2.773-0.195-5.535-0.326-8.299c-0.229-4.809-0.155-9.638-0.041-14.474c0.008-0.292,0.033-0.587,0.076-0.874
		c0.107-0.696,0.371-1.072,0.865-1.184c0.319-0.072,0.645-0.1,0.966-0.09c1.987,0.065,3.974,0.146,5.96,0.225
		C202.444,73.942,202.712,73.966,202.882,73.978z"/>
	<path fill-rule="evenodd" clip-rule="evenodd" fill="#FFFFFF" d="M208.255,106.45c0.449,0.078,0.617,0.264,0.675,0.855
		c0.091,0.955,0.167,1.916,0.211,2.879c0.198,4.676,0.394,9.35,0.571,14.027c0.141,3.676,0.258,7.353,0.376,11.031
		c0.036,1.15,0.051,2.305,0.07,3.458c0.003,0.224-0.005,0.448-0.032,0.667c-0.037,0.291-0.177,0.467-0.389,0.512
		c-0.135,0.025-0.271,0.029-0.406,0.034c-1.092,0.028-2.181,0.059-3.271,0.087c-0.507,0.016-0.635-0.125-0.648-0.812
		c-0.023-1.229-0.012-2.458-0.045-3.684c-0.079-2.787-0.154-5.574-0.271-8.356c-0.113-2.669-0.262-5.337-0.424-8.003
		c-0.084-1.404-0.228-2.801-0.359-4.199c-0.229-2.431-0.303-4.883-0.359-7.338c-0.002-0.146,0.004-0.298,0.02-0.444
		c0.037-0.356,0.162-0.554,0.408-0.621c0.16-0.044,0.328-0.065,0.49-0.069c1.01-0.015,2.019-0.021,3.025-0.029
		C208.035,106.442,208.168,106.448,208.255,106.45z"/>
	<path fill-rule="evenodd" clip-rule="evenodd" fill="#FFFFFF" d="M244.558,125.851c-0.033,0.303-0.082,0.604-0.125,0.906
		c-0.088,0.611-0.369,1.035-0.846,1.27c-0.203,0.101-0.406,0.197-0.613,0.285c-1.441,0.626-2.886,1.243-4.326,1.874
		c-3.566,1.564-7.107,3.203-10.502,5.241c-0.621,0.373-1.215,0.599-1.864,0.082c-0.083-0.064-0.214-0.092-0.312-0.072
		c-0.098,0.021-0.219,0.098-0.263,0.196c-0.064,0.146-0.104,0.332-0.101,0.502c0.008,0.55-0.229,0.899-0.604,1.153
		c-0.377,0.252-0.755,0.508-1.129,0.762c-4.156,0.586-8.311,1.176-12.465,1.769c-0.35-3.024-0.697-6.044-1.049-9.067
		c-0.152-1.297-0.308-2.596-0.461-3.889c0.744,0.299,1.46,0.464,2.286,0.238c1.06-0.293,3.386-0.419,4.481-0.52
		c1.207-0.109,1.186-0.232,2.355-0.604c1.649-0.523,1.823-0.403,2.621,1.352c0.814,1.781,1.645,3.55,2.475,5.32
		c0.088,0.188,0.207,0.354,0.311,0.527c0.068-0.035,0.137-0.07,0.205-0.104c-0.208-0.693-0.469-1.359-0.754-2.02
		c-0.607-1.412-1.188-2.838-1.777-4.26c-0.063-0.158-0.118-0.324-0.157-0.496c-0.12-0.52-0.02-0.865,0.394-1.076
		c0.534-0.272,1.086-0.512,1.647-0.703c1.44-0.492,2.882-0.98,4.241-1.751c0.394-0.226,0.781-0.467,1.17-0.708
		c0.575-0.359,0.958-0.917,1.191-1.643c0.702-2.203,1.471-4.381,2.098-6.616c0.462-1.653,0.754-3.378,1.098-5.078
		c0.191-0.943,0.009-1.831-0.435-2.645c-0.061-0.112-0.114-0.253-0.201-0.312c-0.249-0.171-0.579-0.234-0.749-0.471
		c-0.188-0.262-0.298-0.58-0.587-0.75c-0.647-0.385-0.997-1.164-1.495-1.742c-0.076-0.092-0.146-0.221-0.164-0.342
		c-0.106-0.859-0.669-1.308-1.107-1.902c-0.777-1.05-1.714-1.961-2.184-3.357c-0.812,0.086-1.375-0.543-2.008-0.957
		c-0.368-0.24-0.567-0.688-0.689-1.163c-0.104-0.408-0.297-0.698-0.633-0.858c-0.361-0.172-0.577-0.535-0.775-0.914
		c-0.24-0.46-0.559-0.806-0.943-1.092c-0.594-0.443-1.156-0.945-1.737-1.413c-0.421-0.339-0.693-0.786-0.769-1.394
		c-0.053-0.446-0.17-0.859-0.473-1.16c-0.447-0.449-0.635-1.059-0.805-1.7c-0.416-1.579-0.704-1.729-2.005-1.105
		c-0.202,0.099-0.4,0.221-0.609,0.293c-1.138,0.403-2.146,1.081-3.075,1.948c-0.314,0.293-0.67,0.525-1.018,0.766
		c-0.482,0.334-1.009,0.479-1.57,0.501c-1.282,0.056-2.562,0.135-3.842,0.219c-0.203,0.013-0.389,0.05-0.559,0.106
		c-0.527-4.297-1.143-8.586-1.738-12.877c-0.104-0.737-0.247-1.48-0.441-2.201c0.91,0.062,1.82,0.127,2.73,0.197
		c3.003,0.229,5.999,0.566,8.99,0.994c2.422,0.346,4.801,0.816,7.091,1.859c1.101,0.502,2.196,1.022,3.266,1.611
		c1.909,1.051,3.821,2.105,5.506,3.65c0.995,0.912,1.979,1.844,2.962,2.777c2.215,2.098,4.068,4.617,5.814,7.255
		c1.227,1.853,2.219,3.854,2.707,6.168c0.297,1.409,0.631,2.807,0.915,4.22c0.64,3.213,1.286,6.428,1.6,9.711
		c0.044,0.48,0.148,0.951,0.223,1.428c0.077,0.475,0.147,0.95,0.235,1.516c0.008,1.583,0.086,3.253-0.082,4.913
		C244.951,122.286,244.751,124.067,244.558,125.851z"/>
	<path fill="#FFFFFF" d="M174.952,9.65c0-3.107-2.346-5.698-5.155-5.698c-2.811,0-5.155,2.591-5.155,5.698
		c-0.003,16.358-0.329,32.717,0,49.074c0.063,3.105,2.299,5.697,5.155,5.697c2.76,0,5.219-2.589,5.155-5.697
		C174.623,42.367,174.949,26.008,174.952,9.65z"/>
	<path fill-rule="evenodd" clip-rule="evenodd" fill="#FFFFFF" d="M153.099,7.844c0.002-0.305-0.018-0.518,0.003-0.708
		c0.139-1.254,0.313-2.488,0.421-3.758c0.099-1.197,0.479-1.747,1.165-1.758c0.359-0.006,0.716-0.042,1.074-0.042
		c0.96-0.001,1.915-0.056,2.88,0.03c1.723,0.154,3.406-0.169,5.117-0.08c2.777,0.144,5.484-0.344,8.232-0.451
		c0.984-0.038,1.978-0.011,2.963-0.037c0.719-0.017,1.439-0.028,2.146-0.123c1.867-0.247,3.762-0.16,5.652-0.146
		c0.179,0.002,0.363,0.036,0.541,0.104c0.197,0.076,0.335,0.322,0.4,0.662c0.027,0.154,0.051,0.315,0.063,0.473
		c0.116,1.271,0.233,2.544,0.344,3.815c0.021,0.264,0.036,0.532,0.032,0.793c-0.005,0.518-0.151,0.875-0.432,0.985
		c-0.256,0.098-0.521,0.158-0.787,0.174c-1.699,0.102-3.377,0.373-5.107,0.208c-1.021-0.098-2.026,0.128-3.041,0.172
		c-0.656,0.028-1.32-0.008-1.979-0.022c-0.18-0.001-0.368-0.051-0.543-0.026c-1.865,0.248-3.768,0.098-5.654,0.118
		c-1.917,0.02-3.838-0.037-5.756-0.052c-0.391-0.005-0.777,0.033-1.168,0.029c-0.599-0.004-1.201-0.03-1.8-0.036
		c-0.511-0.004-1.017,0.023-1.528,0.008c-0.961-0.029-1.924-0.073-2.886-0.125C153.369,8.046,153.279,7.951,153.099,7.844z"/>
	<path fill-rule="evenodd" clip-rule="evenodd" fill="#FFFFFF" d="M184.66,61.537c-0.012,0.283-0.002,0.484-0.029,0.66
		c-0.172,1.166-0.382,2.316-0.525,3.499c-0.138,1.117-0.521,1.622-1.176,1.616c-0.344-0.003-0.684,0.022-1.027,0.015
		c-0.916-0.022-1.832,0.006-2.75-0.096c-1.642-0.185-3.258,0.078-4.889-0.046c-2.649-0.2-5.252,0.191-7.881,0.228
		c-0.941,0.012-1.888-0.038-2.832-0.038c-0.685,0.001-1.374-0.006-2.055,0.065c-1.791,0.187-3.601,0.062-5.404,0.003
		c-0.17-0.007-0.345-0.041-0.516-0.11c-0.183-0.073-0.305-0.308-0.357-0.628c-0.022-0.145-0.036-0.295-0.044-0.443
		c-0.069-1.19-0.138-2.382-0.198-3.572c-0.014-0.248-0.018-0.498-0.004-0.739c0.023-0.486,0.175-0.815,0.445-0.912
		c0.248-0.085,0.502-0.135,0.76-0.144c1.625-0.057,3.238-0.267,4.884-0.074c0.972,0.114,1.938-0.072,2.911-0.089
		c0.629-0.012,1.258,0.04,1.89,0.067c0.171,0.007,0.347,0.056,0.516,0.039c1.79-0.188,3.604-0.005,5.407,0.023
		c1.828,0.026,3.664,0.125,5.496,0.185c0.372,0.012,0.743-0.013,1.115,0c0.572,0.017,1.145,0.057,1.719,0.075
		c0.487,0.017,0.974,0.004,1.459,0.029c0.92,0.05,1.835,0.114,2.754,0.185C184.408,61.34,184.492,61.431,184.66,61.537z"/>
	<path fill-rule="evenodd" clip-rule="evenodd" fill="#FFFFFF" d="M51.199,83.272h-0.001c-0.335-0.591-0.658-1.189-1.007-1.775
		c-0.451-0.754-0.98-1.424-1.652-1.973c-0.4-0.327-0.753-0.754-1.13-1.132c-2.245-2.231-4.584-4.271-7.112-5.967
		c-0.027-0.02-0.055-0.038-0.083-0.056c-1.223-0.006-2.446-0.002-3.674,0.027c-0.805,0.02-1.622,0.145-2.431,0.201
		c-1.407,0.094-2.811,0.182-4.217,0.254c-0.426,0.021-0.844-0.05-1.271-0.023c-2.3,0.139-4.602,0.289-6.902,0.445
		c-1.044,0.068-2.088,0.131-3.135,0.24c-1.477,0.157-2.95,0.286-4.432,0.557c-2.041,0.371-4.086,0.799-6.135,1.349
		c-0.455,0.124-0.967,0.676-1.406,1.36c-0.926,1.445-1.828,3.067-2.726,4.692c-1.107,1.999-1.974,4.589-2.641,7.761
		c-0.646,3.084-0.848,6.289-1.208,9.451c-0.069,0.618-0.017,1.294,0.016,1.908c0.109,2.08,0.208,4.174,0.361,6.204
		c0.312,4.117,0.658,8.19,0.981,12.294c0.141,1.801,0.526,2.947,1.091,3.729c1.431,1.978,2.846,4.012,4.27,6.025
		c1.895,2.684,3.878,4.921,6.054,6.193c4.417,2.581,8.934,4.344,13.625,4.713c1.551-0.033,3.098-0.006,4.653-0.111
		c2.239-0.151,4.478-0.305,6.729-0.626c0.91-0.13,1.825-0.272,2.737-0.423c0.256-0.189,0.511-0.386,0.766-0.588
		c0.519-0.412,1.011-0.857,1.515-1.288v-0.001c0.526-0.449,1.061-0.889,1.572-1.352c0.664-0.594,1.225-1.24,1.626-1.992
		c0.241-0.449,0.591-0.875,0.888-1.314c0.71-1.057,1.381-2.121,2.008-3.195c0.083-1.252,0.171-2.506,0.272-3.766
		c0.056-0.698,0.107-1.402,0.159-2.101c-0.083,0.019-0.168,0.055-0.251,0.065c-0.104,0.013-0.233,0.041-0.309-0.011
		c-0.434-0.304-0.765-0.079-1.045,0.224c-0.65-0.088-1.251-0.311-1.872-0.058c-0.089,0.036-0.209-0.016-0.316-0.03
		c-0.08-0.009-0.174-0.062-0.237-0.036c-0.686,0.292-1.447-0.007-2.128,0.322c-0.062,0.028-0.175,0.043-0.209,0.004
		c-0.264-0.294-0.549-0.215-0.81-0.038c-0.153,0.104-0.288,0.113-0.454,0.108c-0.149-0.003-0.3-0.011-0.449-0.017
		c-0.205,0.273-0.427,0.541-0.67,0.798c-0.816,0.868-1.64,1.735-2.425,2.62c-0.247,0.279-0.547,0.514-0.851,0.756
		c-0.472,0.375-0.909,0.777-1.322,1.191c-1.226,1.219-2.649,2.289-4.351,3.179c-2.408,1.256-2.148,0.026-5.083-0.535
		c-1.347-0.257-1.475-0.667-2.459-1.437c-0.761-0.6-1.577-1.161-2.323-1.767c-1.118-0.909-1.933-1.95-2.612-3.042
		c-1.756-2.82-3.273-5.688-4.438-8.639c-0.828-2.096-1.333-4.199-1.363-6.34c-0.031-2.121-0.185-4.246-0.491-6.373
		c-0.232-1.604-0.139-3.188,0.113-4.756c0.441-2.762,0.91-5.52,1.388-8.278c0.106-0.612,0.288-1.212,0.453-1.813
		c0.531-1.928,1.271-3.805,2.016-5.682c0.247-0.625,0.643-1.143,1.368-1.564c0.695-0.405,1.226-0.965,1.521-1.615
		c0.041-0.084,0.055-0.193,0.135-0.249c0.976-0.708,2.237,0.47,3.619,0.05c2.14-0.648,0.316,0.211,2.637-0.043
		c0.896-0.098,1.8-0.03,2.706,0.1c1.828,0.258,1.828,0.258,3.291,1.096c0.457,0.261,0.938,0.501,1.368,0.781
		c0.459,0.303,0.878,0.637,1.308,0.963c1.466,1.108,2.187,0.285,3.194,1.64c0.792,1.063,1.359,2.18,2.008,3.274
		c0.099-0.104,0.197-0.193,0.305-0.266c0.198-0.127,0.443-0.162,0.699-0.25c0.044,0.095,0.1,0.191,0.139,0.298
		c0.081,0.216,0.104,0.491,0.243,0.644c0.177,0.193,0.433,0.344,0.678,0.411c0.306,0.083,0.633,0.063,1.03,0.095
		c-0.161-0.303-0.426-0.02-0.517-0.277c0.059-0.154,0.194-0.148,0.362-0.129c0.442,0.057,0.536-0.016,0.619-0.443
		c0.023-0.123,0.021-0.254,0.037-0.459c0.621,1.024,0.815,1.018,1.286,0.703c0.119,0.096,0.231,0.242,0.363,0.272
		c0.107,0.023,0.254-0.073,0.359-0.154c0.215-0.174,0.462-0.338,0.61-0.567c0.164-0.264,0.353-0.106,0.529-0.141
		c0.032,0.141,0.064,0.279,0.101,0.439c0.213-0.041,0.394-0.078,0.582-0.115c0.026-0.189,0.051-0.354,0.081-0.566
		c0.11,0.109,0.185,0.184,0.305,0.304c0.165-0.071,0.354-0.155,0.562-0.245c0.083,0.126,0.185,0.283,0.302,0.468
		c0.18-0.073,0.354-0.131,0.518-0.214c0.165-0.082,0.321-0.188,0.498-0.291c0.055,0.196,0.103,0.365,0.163,0.572
		c0.254,0.098,0.547,0.19,0.645,0.559c0.045,0.163,0.103,0.381,0.217,0.445c0.179,0.103,0.408,0.109,0.618,0.133
		c0.065,0.008,0.134-0.062,0.192-0.092c0.029-0.236-0.195-0.198-0.258-0.354c-0.021-0.384-0.042-0.795-0.063-1.177
		c-0.19-0.234-0.691-0.004-0.595-0.552c0.329,0.027,0.618,0.159,0.875,0.386c0.064,0.055,0.148,0.09,0.196,0.156
		c0.047,0.061,0.11,0.078,0.175,0.078c0.06-0.914,0.121-1.828,0.18-2.742C51.773,84.267,51.479,83.774,51.199,83.272z"/>
	<path fill-rule="evenodd" clip-rule="evenodd" fill="#FFFFFF" d="M94.472,86.063c0.276-0.611,0.208-1.152-0.126-1.666
		c-0.223-0.349-0.549-0.617-0.489-1.335c0.101-0.062,0.227-0.149,0.356-0.214c0.404-0.201,0.404-0.198,0.369-1.153
		c-0.246,0.042-0.487,0.083-0.819,0.142c0.042-0.273,0.033-0.525,0.109-0.643c0.154-0.234,0.355-0.393,0.559-0.607
		c0.072-0.509,0.101-1.077,0.235-1.58c0.125-0.459,0.361-0.849,0.552-1.262c0.278-0.597,0.56-1.188,0.845-1.777
		c0.33-0.684,0.779-1.028,1.328-1.035c1.068-0.012,2.137-0.048,3.205,0.002c0.847,0.037,1.122,0.387,1.26,1.682
		c0.22,2.059,0.389,4.131,0.561,6.203c0.479,5.764,0.856,11.55,1.617,17.254c0.634,4.754,0.234,5.519,0.826,10.286
		c0.147,1.179,0.119,6.372-0.122,11.147c-0.011,0.256,0.021,5.121-0.372,6.789c-0.323,1.378-0.454,5.521-0.71,6.931
		c-0.118,0.65,0.443,2.987,0.602,3.677c0.159,0.693-0.725,0.265-1.206,0.373c-0.761,0.172-1.531,0.266-2.301,0.362
		c-0.329,0.04-0.662-0.024-0.992,0.005c-0.396,0.035-4.116,0.113-4.341,0.064c-0.068-0.014-0.132-0.08-0.198-0.123
		c0.149-1.984,0.107-12.195,0.238-13.6c0.862-9.133,0.501-16.479,0.409-18.563c-0.019-0.394,0.011-0.827-0.09-1.164
		c-0.331-1.104-0.27-2.323-0.479-3.46c-0.047-0.252,0.007-0.549,0.016-0.824c0.011-0.272,0.093-0.594,0.026-0.805
		c-0.226-0.705-0.123-1.252,0.16-1.874c0.145-0.325,0.167-0.872,0.122-1.287c-0.247-2.347-0.333-4.691-0.244-7.067
		c0.037-0.998-0.102-2.018-0.192-3.021C95.118,87.164,94.831,86.573,94.472,86.063z"/>
	<path fill-rule="evenodd" clip-rule="evenodd" fill="#FFFFFF" d="M34.086,27.614c-0.087,0.04-1.554,0.496-1.563,0.599
		c-0.142-0.038-0.31,0.372-0.027,0.505c0.343,0.157,0.735,0.26,1.119,0.345c3.18,0.706,5.585,4.576,8.174,6.167
		c1.199,0.735,2.17,1.588,2.702,2.744c1.016,2.205,2.128,4.386,3.087,6.607c0.345,0.797,0.383,1.676,0.535,2.52
		c0.114,0.634,0.194,1.271,0.275,1.907c0.033,0.264,0.076,0.534,0.038,0.793c-0.391,2.611-1.223,5.138-2.382,7.593
		c-0.326,0.689-0.875,1.32-1.399,1.94c-0.207,0.245-0.613,0.532-0.939,0.54c-1.274,0.026-1.994,0.741-2.585,1.397
		c-0.857,0.952-1.969,1.389-3.32,1.654c-0.981,0.191-6.085,3.512-7.061,3.729c-0.444,0.099-0.919,0.114-1.382,0.163
		c-0.386,0.04-0.792,0.025-1.152,0.116c-0.349,0.092-0.675,0.151-0.937-0.06c-0.453-0.361-1.012-0.346-1.518-0.228
		c-2.09,0.487-2.859,0.447-5.024,0.577c-0.721,0.044-1.412,0.345-2.126,0.501c-1.232,0.271-1.869,0.152-3.212,0.278
		c-0.528,0.048-7.278-0.156-7.801,0.133c-0.552,0,2.045-2.667,1.394-2.667c0-0.548,1.573-3.022,1.573-3.61
		c-0.31,0.174,0.137-0.366-0.092-0.238c-0.019-0.022-0.154-0.492-0.216-0.377c-0.207-0.381-0.413-0.767-0.634-1.179
		c0.524-0.233,0.97-0.482,1.465-0.643c2.442-0.798,6.763-1.177,9.937-1.849c2.532-0.531,4.938-0.771,7.375-0.954
		c0.067-0.006,0.138,0.005,0.204-0.005c3.104-0.512,5.612-2.382,8.684-3.037c1.076-0.228,1.803-0.721,2.207-1.51
		c1.582-3.092-0.064-5.347-0.656-6.822c-0.627-1.554-1.401-4.364-3.198-5.177c-3.726-1.688-7.737-3.487-12.021-3.453
		c-1.552,0.013-4.892-1.055-6.32-0.496c-0.473,0.186-0.928,0.292-1.516,0.27c-0.63-0.025-2.278,0.501-3.492-0.208
		c-0.598-0.27,0.561-3.084-0.309-4.534c0-0.418-0.087-0.748,0.02-1.034c0.215-0.576,0.3-1.102,0.012-1.701
		c-0.283-0.586-0.422-3.695,0.175-4.064c1.384-0.852,1.726-0.457,3.339-0.809c2.328-0.507,5.258-0.061,7.467-0.484
		c2.238-0.277,1.774-0.173,3.543-0.708c2.328-0.891,1.427-0.653,2.886-1.211c2.147-0.819,3.893-2.339,3.865-2.631
		c0.663-1.669,0.496-1.103,0.393-2.482c-0.1-1.357-0.878-1.722-2.04-2.689c-1.442-1.2-3.37-1.521-5.306-2.252
		c-6.036-1.923-4.938-2.113-6.962-1.709c-1.417,0.305-2.517,0.032-3.946,0.406c-0.536,0.141-5.024,1.563-5.261,1.213
		c-0.309-0.456-0.405-3.44,0.342-4.619c0.362-0.573-0.275-1.27-0.709-1.914c0.212-0.461,0.003-0.862,0.269-1.439
		c0.597-0.231,0.622,0.059,1.112-0.325c0.865-0.675,4.879-1.981,5.949-1.921c1.857,0.1,3.614-0.71,5.407-0.514
		c7.829,0.855,7.595,2.639,9.637,3.682c3.042,1.555,5.626,3.5,7.456,6.014c0.867,1.192,1.065,2.52,1.306,3.84
		c0.164,0.898,0.268,1.802,0.445,2.699c0.231,1.178,0.052,2.349-0.089,3.515c-0.048,0.403-0.327,0.816-0.61,1.17
		c-0.76,0.948-2.572,2.738-3.42,3.351c-0.594,0.43-1.079,1.142-1.688,1.562C35.167,26.859,35.266,27.084,34.086,27.614z"/>
	<path fill-rule="evenodd" clip-rule="evenodd" fill="#FFFFFF" d="M226.542,22.472c0-6.963-0.002-13.927,0.002-20.89
		c0-0.375,0.004-0.751,0.069-1.122c0.068-0.39,0.462-0.533,1.048-0.425c0.279,0.053,0.547,0.135,0.82,0.202
		c2.145,0.521,4.299,1.032,6.436,1.567c0.519,0.13,0.975,0.359,1.482,0.51c0.238,0.07,0.535,0.086,0.807,0.084
		c1.438-0.001,1.829,0.219,1.915,1.13c0.031,0.311,0.02,0.625,0.017,0.937c-0.017,5.463-0.086,10.927-0.035,16.391
		c0.039,4.305,0.199,8.61,0.359,12.916c0.148,3.992,0.401,7.984,0.553,11.974c0.141,3.713,0.236,7.427,0.303,11.138
		c0.044,2.432,0.004,4.864,0,7.294c0,0.125-0.002,0.25-0.018,0.376c-0.096,0.752-0.298,0.937-1.471,1.033
		c-1.793,0.143-3.596,0.236-5.396,0.338c-1.218,0.068-2.435,0.111-3.653,0.169c-1.582,0.074-1.957-0.091-2.084-1.077
		c-0.094-0.71-0.021-1.428-0.08-2.142c-0.064-0.777-0.209-1.553-0.293-2.33c-0.08-0.716-0.175-1.433-0.18-2.149
		c-0.021-3.31-0.003-6.619-0.03-9.927c-0.004-0.747-0.27-1.503-0.166-2.24c0.126-0.905-0.056-1.79-0.078-2.684
		c-0.16-7.022-0.274-14.048-0.4-21.072C226.494,22.472,226.517,22.472,226.542,22.472z M228.449,53.354
		c-0.197-0.105-0.318-0.188-0.467-0.231c-0.043-0.012-0.256,0.128-0.245,0.139c0.092,0.091,0.202,0.181,0.342,0.239
		C228.119,53.517,228.265,53.428,228.449,53.354z M235.845,3.052c-0.08-0.01-0.16-0.021-0.242-0.03
		c-0.008,0.047-0.021,0.096-0.018,0.144c0,0.004,0.101,0.023,0.12,0.012C235.761,3.144,235.8,3.097,235.845,3.052z M230.916,20.554
		c-0.008-0.025-0.018-0.05-0.025-0.075c-0.054,0.018-0.112,0.037-0.166,0.058c0.028,0.017,0.055,0.045,0.088,0.048
		C230.844,20.588,230.88,20.566,230.916,20.554z M227.228,22.903c-0.027,0.016-0.072,0.03-0.075,0.047
		c-0.003,0.02,0.032,0.042,0.048,0.064c0.043-0.025,0.084-0.051,0.127-0.074C227.292,22.928,227.26,22.915,227.228,22.903z"/>
	<path fill="#FFFFFF" d="M120.626,82.229c-0.001,16.359-0.328,32.718,0,49.076c0.062,3.102,2.297,5.697,5.155,5.697
		c2.762,0,5.217-2.593,5.154-5.697c-0.328-16.358-0.002-32.717,0-49.076c0-3.105-2.345-5.696-5.154-5.696
		C122.971,76.533,120.626,79.124,120.626,82.229L120.626,82.229z"/>
	<path fill-rule="evenodd" clip-rule="evenodd" fill="#FFFFFF" d="M109.084,80.425c0-0.305-0.018-0.518,0.004-0.709
		c0.137-1.252,0.312-2.488,0.418-3.756c0.101-1.197,0.481-1.747,1.167-1.758c0.36-0.006,0.716-0.043,1.075-0.043
		c0.959-0.001,1.915-0.055,2.877,0.031c1.724,0.152,3.404-0.17,5.118-0.082c2.778,0.146,5.484-0.344,8.233-0.45
		c0.983-0.038,1.977-0.011,2.962-0.034c0.719-0.021,1.438-0.031,2.148-0.124c1.865-0.249,3.762-0.162,5.65-0.146
		c0.181,0.003,0.365,0.034,0.543,0.104c0.195,0.075,0.332,0.323,0.398,0.662c0.031,0.154,0.051,0.315,0.064,0.474
		c0.115,1.271,0.231,2.543,0.344,3.814c0.02,0.264,0.035,0.531,0.031,0.791c-0.005,0.52-0.152,0.877-0.432,0.985
		c-0.254,0.099-0.521,0.159-0.788,0.175c-1.698,0.105-3.378,0.372-5.106,0.209c-1.023-0.098-2.025,0.129-3.042,0.172
		c-0.656,0.027-1.319-0.009-1.978-0.023c-0.18-0.001-0.367-0.049-0.543-0.025c-1.866,0.248-3.768,0.098-5.655,0.117
		c-1.916,0.02-3.836-0.037-5.756-0.054c-0.391-0.003-0.778,0.032-1.166,0.03c-0.6-0.004-1.201-0.032-1.803-0.037
		c-0.508-0.002-1.017,0.024-1.527,0.01c-0.959-0.029-1.923-0.074-2.886-0.125C109.353,80.628,109.264,80.533,109.084,80.425z"/>
	<path fill-rule="evenodd" clip-rule="evenodd" fill="#FFFFFF" d="M140.643,134.117c-0.01,0.284-0.001,0.483-0.026,0.659
		c-0.176,1.17-0.385,2.318-0.529,3.5c-0.136,1.117-0.519,1.623-1.173,1.616c-0.342-0.003-0.685,0.022-1.028,0.014
		c-0.916-0.021-1.831,0.008-2.748-0.095c-1.643-0.184-3.26,0.077-4.891-0.046c-2.648-0.201-5.25,0.191-7.88,0.227
		c-0.943,0.013-1.89-0.036-2.832-0.035c-0.686,0-1.376-0.007-2.056,0.062c-1.792,0.188-3.6,0.063-5.404,0.004
		c-0.17-0.007-0.346-0.04-0.515-0.109c-0.185-0.075-0.308-0.31-0.358-0.628c-0.025-0.145-0.038-0.297-0.044-0.442
		c-0.068-1.192-0.137-2.382-0.199-3.573c-0.012-0.246-0.015-0.498-0.004-0.74c0.021-0.484,0.175-0.814,0.447-0.908
		c0.247-0.088,0.502-0.138,0.759-0.147c1.626-0.056,3.239-0.266,4.883-0.071c0.973,0.113,1.94-0.074,2.911-0.091
		c0.629-0.011,1.26,0.04,1.888,0.067c0.174,0.008,0.349,0.057,0.519,0.039c1.789-0.189,3.603-0.006,5.406,0.023
		c1.83,0.024,3.664,0.124,5.498,0.184c0.371,0.012,0.742-0.013,1.113-0.001c0.574,0.019,1.146,0.057,1.719,0.077
		c0.487,0.016,0.973,0.003,1.459,0.027c0.918,0.049,1.836,0.115,2.754,0.186C140.39,133.921,140.475,134.011,140.643,134.117z"/>
	<path fill-rule="evenodd" clip-rule="evenodd" fill="#FFFFFF" d="M4.315,67.826c-0.909-0.204-1.239-0.597-1.3-1.794
		c-0.097-1.94-0.035-3.359-0.029-5.31c0.034-9.465,0.078-18.931,0.155-28.399C3.2,24.884,3.311,17.441,3.415,9.999
		c0.033-2.331,0.113-4.664,0.182-6.995c0.013-0.45,0.054-0.906,0.13-1.346C3.826,1.074,4.129,0.731,4.57,0.664
		c0.28-0.041,0.562-0.035,0.841-0.031c2.241,0.043,4.48,0.094,6.722,0.138c1.041,0.02,1.292,0.319,1.253,1.708
		c-0.078,2.796-0.208,4.845-0.256,7.446c-0.072,4.014-0.204,9.634-0.232,16.912c-0.022,5.408,0.396,9.177,0.479,14.576
		c0.044,2.847-0.164,7.317-0.029,10.156c0.187,3.854,0.056,8.269-0.092,14.327c-0.007,0.3-0.033,0.604-0.079,0.9
		c-0.111,0.715-0.386,1.1-0.902,1.214c-0.331,0.073-0.675,0.101-1.007,0.091c-2.074-0.066-4.146-0.149-6.217-0.23
		C4.771,67.86,4.493,67.836,4.315,67.826z"/>
	<g>
		<polygon fill="#FFFFFF" points="68.364,128.079 68.401,128.03 68.316,128.034 		"/>
		<path fill="#FFFFFF" d="M71.101,99.255c-0.004-0.354-0.039-0.709-0.082-1.061c-0.129-1.061-0.262-2.119-0.406-3.178
			c-0.125-0.906-0.211-1.817-0.406-2.721c-0.404-1.88-0.855-3.758-1.31-5.634c-0.496-2.054-1.111-4.096-1.876-6.116
			c-0.345-0.913-0.827-1.801-1.497-2.648c-0.884-1.117-1.914-2.184-3.064-3.205c-0.39-0.347-0.883-0.626-1.533-0.732
			c-0.913-0.15-1.847-0.279-2.785-0.34c-0.943-0.061-1.293,0.153-1.361,0.723c-0.043,0.354-0.027,0.708-0.027,1.062
			c-0.001,16.088-0.001,32.178-0.001,48.266l-0.004,0.002v6.637l0.006-0.001c-0.001,2.528-0.002,5.058-0.001,7.587
			c0,0.176-0.002,0.355,0.022,0.529c0.074,0.512,0.287,0.689,1.088,0.779c0.686,0.076,1.391,0.096,2.091,0.123
			c1.151,0.048,2.304,0.092,3.459,0.115c1.402,0.029,2.806,0.033,4.208,0.047c0.122,0.002,0.249-0.01,0.37-0.023
			c0.318-0.037,0.527-0.159,0.568-0.352c0.05-0.224,0.067-0.453,0.068-0.681c0.008-0.962,0.002-1.922,0.014-2.885
			c0.004-0.328,0.041-0.655,0.068-0.984c0.049-0.581,0.128-1.161,0.155-1.74c0.101-2.253,0.186-4.501,0.282-6.751
			c0.008-0.177,0.052-0.352,0.068-0.529c0.055-0.556,0.118-1.11,0.154-1.666c0.102-1.566,0.194-3.133,0.294-4.699
			c0.007-0.126,0.045-0.252,0.061-0.377c0.049-0.455,0.107-0.908,0.141-1.362c0.105-1.312,0.2-2.627,0.299-3.94
			c0.009-0.126,0.052-0.252,0.066-0.379c0.048-0.401,0.104-0.805,0.133-1.209c0.099-1.414,0.128-2.832,0.305-4.243
			c0.117-0.933,0.188-1.868,0.206-2.804c0.005-0.229,0.044-0.455,0.067-0.682c0.056-0.604,0.146-1.211,0.161-1.815
			C71.129,101.329,71.114,100.291,71.101,99.255z M68.364,128.079l-0.048-0.045l0.085-0.004L68.364,128.079z"/>
	</g>
	<g>
		<polygon fill="#FFFFFF" points="69.112,108.599 69.14,108.624 69.136,108.565 		"/>
		<path fill="#FFFFFF" d="M102.184,99.954c-0.218-0.023-0.439-0.006-0.658-0.001c-10.275,0.262-20.552,0.524-30.827,0.788
			c-0.172,0.002-0.347,0.008-0.517,0.018c-0.094,0.004-0.188,0.02-0.281,0.043c-0.186,0.051-0.308,0.238-0.358,0.564
			c-0.023,0.16-0.038,0.323-0.053,0.487c-0.01,0.13-0.022,0.257-0.036,0.383l-0.184-0.016c0.022-0.245,0.047-0.49,0.054-0.739
			c0.013-0.421-0.083-0.617-0.326-0.664c-0.14-0.029-0.282-0.025-0.423-0.021c-1.911,0.047-3.821,0.098-5.735,0.146
			c-0.107,0.003-0.217,0.004-0.326,0.024c-0.316,0.058-0.421,0.203-0.463,0.745c-0.035,0.462-0.037,0.937-0.043,1.407
			c-0.009,0.777-0.018,1.553-0.014,2.33c0.007,0.944,0.026,1.889,0.041,2.832c0.002,0.084,0.01,0.168,0.021,0.25
			c0.028,0.212,0.107,0.352,0.228,0.375c0.14,0.031,0.28,0.039,0.42,0.035c0.596-0.009,1.192-0.028,1.787-0.036
			c0.205-0.001,0.409,0.017,0.611,0.032c0.361,0.023,0.721,0.067,1.081,0.075c1.394,0.034,2.79,0.056,4.183,0.083
			c0.111,0.002,0.22,0.027,0.33,0.039c0.343,0.025,0.688,0.061,1.033,0.076c0.972,0.045,1.944,0.08,2.915,0.123
			c0.077,0.002,0.157,0.027,0.234,0.035c0.283,0.027,0.564,0.057,0.847,0.075c0.814,0.048,1.629,0.091,2.444,0.139
			c0.077,0.005,0.156,0.029,0.234,0.04c0.251,0.023,0.501,0.055,0.751,0.066c0.877,0.045,1.755,0.042,2.632,0.139
			c0.581,0.065,1.158,0.098,1.738,0.094c0.143,0,0.283,0.025,0.425,0.035c0.375,0.027,0.751,0.079,1.127,0.079
			c0.643,0.001,1.285-0.026,1.926-0.05c0.22-0.008,0.438-0.038,0.656-0.072c0.653-0.105,1.306-0.211,1.958-0.322
			c0.561-0.099,1.124-0.174,1.679-0.317c1.158-0.302,2.312-0.635,3.467-0.97c1.262-0.367,2.515-0.813,3.753-1.36
			c0.561-0.247,1.103-0.585,1.616-1.05c0.677-0.612,1.32-1.321,1.934-2.111c0.207-0.27,0.372-0.605,0.427-1.043
			c0.078-0.617,0.143-1.248,0.164-1.881C102.678,100.223,102.538,99.991,102.184,99.954z M69.112,108.599l0.024-0.033l0.004,0.059
			L69.112,108.599z"/>
	</g>
	<path fill-rule="evenodd" clip-rule="evenodd" fill="#FFFFFF" d="M81.447,48.214c0.369,0.5,0.726,1.006,1.106,1.496
		c0.491,0.631,1.038,1.18,1.692,1.596c0.393,0.25,0.754,0.597,1.131,0.892c2.243,1.758,1.986,2.154,4.405,3.39
		c1.264,0.646,2.522,1.302,3.807,1.781c0.548,0.203,0.668,0.341,0.8,0.974c0.208,0.992,0.382,1.979,0.562,2.967
		c0.25,1.369,0.486,2.736,0.732,4.104c0.132,0.73,0.038,0.82-0.636,0.577c-1.073-0.388-2.149-0.749-3.221-1.165
		c-0.617-0.24-1.234-0.537-1.843-0.854c-3.513-1.836-4.512-2.3-7.977-4.377c-1.901-1.138-3.783-2.339-5.667-3.534
		c-0.956-0.607-1.865-1.322-2.71-2.154c-1.256-1.243-2.536-2.46-3.747-3.753c-0.808-0.856-1.534-1.812-2.264-2.751
		c-0.284-0.362-0.54-0.786-0.707-1.201c-0.388-0.958-0.723-1.929-1.056-2.898c-0.089-0.264-0.125-0.545-0.131-0.801
		c-0.035-1.108-0.117-2.235-0.05-3.3c0.064-0.985,0.221-1.948,0.465-2.84c0.369-1.358,0.846-2.653,1.286-3.967
		c0.067-0.201,1.022-2.223,1.147-2.377c0.965-1.19,3.461-3.229,4.406-4.438c0.959-1.229,2.289-1.961,3.571-2.758
		c0.412-0.255,0.872-0.442,1.279-0.707c0.567-0.362,1.238-0.52,1.905-0.694c2.269-0.591,4.588-1.736,6.757-2.537
		c0.859-0.317,1.79-0.496,2.677-0.759c0.849-0.251,1.69-0.53,2.532-0.801c0.544-0.172,0.668-0.101,0.92,0.603
		c0.687,1.911-0.32-0.71,0.369,1.203c0.479,1.324,0.646,1.772,1.137,3.098c0.333,0.897,0.498,1.199,0.822,2.098
		c0.225,0.62,0.186,0.766-0.327,0.887c-0.98,0.229-1.802,1.019-2.79,1.23c-1.727,0.37-3.484,0.666-5.159,1.142
		c-1.063,0.302-2.025,1.486-3.003,1.963c-1.203,0.589-2.391,1.204-3.569,1.835c-0.215,0.115-0.367,0.34-0.513,0.545
		c-0.307,0.435-1.26,1.158-1.524,1.627c-0.083,0.146-1.256,5.053-1.238,5.262c0.146,1.708,2.528,6.441,3.563,7.957
		C80.724,47.265,81.094,47.736,81.447,48.214L81.447,48.214z"/>
	<path fill-rule="evenodd" clip-rule="evenodd" fill="#FFFFFF" d="M154.908,74.39c0.068,1.035,0.131,1.951,0.192,2.873
		c0.294,0.277,0.947,0.214,0.923,0.807c-0.018,0.492-0.067,1.021,0.301,1.604c1.082-0.99,0.287-2.092,0.527-3.151
		c0.543,0.459,0.191,1.026,0.408,1.483c0.221,0.47,0.301,0.986,0.434,1.45c0.309,0.144,0.566,0.267,0.791,0.372
		c0.332,1.877,0.607,3.715,1.009,5.531c0.151,0.691,0.603,1.334,0.907,2c0.129,0.282,0.39,0.606,0.316,0.854
		c-0.233,0.779,0.055,1.527,0.041,2.287c-0.012,0.609-0.085,1.253-0.33,1.818c-0.41,0.943-0.111,1.94-0.449,2.879
		c-0.057,0.148,0.127,0.376,0.24,0.547c0.148,0.221,0.402,0.424,0.211,0.694c-0.414,0.587-0.041,1.134,0.197,1.622
		c0.268,0.549,0.384,1.084,0.357,1.652c-0.057,1.229-0.016,2.47-0.459,3.666c-0.154,0.414-0.105,0.814,0.085,1.209
		c0.265,0.549,0.169,1.09,0.065,1.665c-0.125,0.696-0.035,1.425-0.018,2.14c0.007,0.308,0.166,0.633,0.086,0.916
		c-0.341,1.176-0.211,2.355-0.166,3.541c0.02,0.456-0.039,0.947-0.225,1.371c-0.432,0.988-0.285,2.026-0.476,3.031
		c-0.034,0.176,0.095,0.371,0.181,0.672c0.206-0.188,0.408-0.291,0.405-0.383c-0.046-0.865-0.211-1.729,0.411-2.535
		c0.159-0.21,0.046-0.572,0.23-0.866c0.037,0.138,0.107,0.276,0.109,0.413c0.029,1.238,0.054,2.476,0.059,3.71
		c0.003,0.358-0.044,0.722-0.105,1.078c-0.096,0.558-0.205,1.114-0.348,1.665c-0.047,0.181-0.209,0.344-0.334,0.508
		c-0.021,0.027-0.115,0.014-0.229,0.023c-0.436-0.869,0.096-1.811-0.238-2.998c-0.172,0.414-0.285,0.561-0.287,0.707
		c-0.006,0.827,0.01,1.654,0.03,2.479c0.003,0.149,0.008,0.354,0.115,0.439c0.729,0.577,0.464,1.336,0.474,2.006
		c0.014,0.854,0.098,1.619,0.885,2.245c0.369,0.292,0.499,0.687,0.369,1.138c-0.57,1.971-1.07,5.09-1.034,6.684
		c0.019,0.715,0.151,1.43,0.229,2.123c-0.834,0.74-1.622,1.443-2.842,1.621c-0.159,0.023-0.352,0.131-0.429,0.246
		c-0.396,0.599-1.139,0.73-1.775,1.022c-0.388,0.177-0.685,0.42-1.151,0.159c-0.087-0.048-0.356,0.018-0.438,0.102
		c-0.561,0.578-1.271,0.441-2.054,0.393c-0.226-0.783,0-1.451,0.435-2.094c-0.414-0.531-1.363-0.555-1.48-1.304
		c-0.037-0.241-0.497-0.446-1.012-0.206c0.164,0.34,0.333,0.689,0.506,1.047c-0.186,0.045-0.355,0.121-0.387,0.09
		c-0.238-0.221-0.567-0.439-0.644-0.707c-0.223-0.793-0.39-1.604-0.497-2.412c-0.814-6.092-0.721-11.63-0.453-17.955
		c0.189-4.438,0.117-8.883,0.312-13.322c0.205-4.706,0.006-9.398-0.184-14.094c-0.134-3.307-0.281-6.608-0.908-9.882
		c-0.059-0.305-0.066-0.618-0.072-0.927c-0.014-0.924-0.014-1.85-0.014-2.773c-0.001-0.637,0.289-1.064,0.988-1.109
		c1.758-0.115,3.523-0.153,5.287-0.186C154.265,74.063,154.546,74.258,154.908,74.39z M158.123,85.931
		c0.15-0.193,0.409-0.379,0.427-0.581c0.05-0.543-0.003-1.093-0.015-1.641c-0.065-0.243-0.164-0.485-0.185-0.731
		c-0.056-0.665-0.056-1.336-0.123-2c-0.019-0.188-0.177-0.387-0.425-0.23c0,0.542-0.034,1.047,0.01,1.549
		c0.037,0.402,0.145,0.809,0.279,1.197c0.034,0.102,0.287,0.148,0.437,0.229c-0.075,0.557-0.138,1.115-0.233,1.67
		c-0.03,0.188-0.141,0.371-0.203,0.557c0.005,0.062,0.012,0.13,0.017,0.194C158.111,86.071,158.118,86.003,158.123,85.931z
		 M151.979,88.544c0.446-0.266,0.549-0.657,0.53-1.082c-0.041-0.873-0.041-1.742-0.533-2.559c-0.312-0.517-0.41-1.045,0.147-1.562
		c0.202-0.19,0.24-0.559,0.239-0.846c-0.004-0.508-0.096-1.012-0.146-1.52c-0.02-0.204-0.002-0.427-0.441-0.364
		c-0.16,0.519-0.463,1.054-0.471,1.594c-0.031,1.794,0.08,3.593,0.049,5.39c-0.011,0.513,0.352,0.707,0.672,0.989
		c-0.549,0.394-0.465,0.827-0.046,1.481C151.979,89.424,151.979,88.985,151.979,88.544z M157.785,93.401
		c0.258,0.229,0.447,0.318,0.454,0.416c0.045,0.615,0.085,1.234,0.063,1.85c-0.066,2.104-0.162,4.207-0.25,6.31
		c-0.004,0.154-0.041,0.309-0.03,0.463c0.03,0.512,0.304,0.871,0.935,0.997c0.121-1.119,0.513-2.205,0.434-3.349
		c-0.043-0.604,0.078-1.228,0.221-1.827c0.184-0.777,0.268-1.537-0.229-2.246c-0.27-0.383-0.315-0.75-0.219-1.176
		c0.063-0.291,0-0.597,0.012-0.895c0.012-0.297,0.031-0.592,0.08-0.885c0.038-0.252,0.182-0.496,0.176-0.742
		c-0.041-1.153-0.279-2.285-0.637-3.531c-1.046,1.225-0.226,2.566-0.796,4.07c-0.176-0.631-0.302-0.912-0.331-1.2
		c-0.07-0.771-0.176-1.544-0.129-2.311c0.058-0.928-0.43-1.81-0.202-2.757c0.063-0.28-0.372-0.629-0.501-0.967
		c-0.118-0.312-0.133-0.652-0.191-0.98c-0.109,1.139-0.148,2.257-0.098,3.373c0.043,0.975,0.213,1.945,0.263,2.918
		c0.054,1.025,0.042,2.055,0.042,3.08c0,0.588,0.107,1.141,0.679,1.898C157.625,94.966,157.693,94.315,157.785,93.401z
		 M150.542,94.027c0.079-0.544,0.155-0.831,0.155-1.116c-0.001-0.512-0.143-1.032-0.059-1.531c0.238-1.428,0.279-2.861,0.27-4.295
		c-0.01-1.588-0.166-3.178-0.255-4.766c-0.03-0.512-0.062-0.996-0.425-1.469c-0.36-0.475-0.503-1.059-0.123-1.615
		c0.264-0.384,0.091-0.656-0.229-0.959c-0.371-0.348-0.498-0.729,0.178-0.973c-0.084-0.111-0.152-0.305-0.256-0.32
		c-0.543-0.084-0.888,0.119-0.89,0.521c-0.001,0.358,0.048,0.718,0.091,1.075c0.252,2.045,0.529,4.084,0.508,6.146
		c-0.008,0.975,0.037,1.952,0.104,2.926c0.125,1.896,0.273,3.791,0.441,5.686C150.066,93.497,150.264,93.647,150.542,94.027z
		 M150.429,98.39c0.127-0.221,0.271-0.377,0.309-0.549c0.223-1.011-0.334-1.993-0.172-3.008c0.018-0.107-0.125-0.236-0.24-0.436
		c-0.169,0.176-0.371,0.299-0.35,0.377c0.186,0.697,0.204,1.369,0.017,2.082C149.868,97.335,150.001,97.865,150.429,98.39z
		 M156,98.421c0.047-0.539,0.113-0.941,0.104-1.344c-0.006-0.258-0.156-0.482-0.647-0.389C155.366,97.263,155.208,97.845,156,98.421
		z M158.052,88.341c0.081,0,0.162,0,0.242,0.002c0-0.235,0.005-0.471-0.004-0.705c-0.002-0.036-0.072-0.096-0.11-0.096
		c-0.042,0-0.12,0.055-0.122,0.086C158.048,87.864,158.052,88.103,158.052,88.341z M156.582,105.931c0.035,0,0.066,0,0.1,0
		c0-0.23,0-0.461,0-0.689c-0.033,0-0.064,0-0.1,0C156.582,105.47,156.582,105.7,156.582,105.931z M159.471,104.988
		c0.081,0.011,0.163,0.022,0.247,0.034c-0.027-0.288-0.057-0.576-0.086-0.865c-0.053,0.004-0.107,0.008-0.161,0.01
		C159.471,104.44,159.471,104.715,159.471,104.988z M155.496,104.589c0.02,0,0.037,0,0.059,0c0-0.184,0-0.369,0-0.553
		c-0.021,0-0.039,0-0.059,0C155.496,104.22,155.496,104.405,155.496,104.589z M158.81,87.712c0.059-0.076,0.156-0.148,0.163-0.227
		c0.011-0.088-0.06-0.181-0.096-0.272c-0.083,0.087-0.205,0.165-0.231,0.265C158.628,87.54,158.75,87.633,158.81,87.712z
		 M151.826,91.378c0.034-0.011,0.09-0.012,0.098-0.033c0.016-0.036,0.006-0.082,0.008-0.127c-0.053,0.014-0.105,0.027-0.158,0.042
		C151.79,91.299,151.808,91.339,151.826,91.378z M151.588,78.021c0-0.082,0.001-0.167-0.005-0.252c0-0.002-0.068,0-0.105,0
		c-0.002,0.084-0.002,0.168-0.002,0.252C151.512,78.021,151.551,78.021,151.588,78.021z M158.518,110.644
		c-0.038,0.034-0.11,0.07-0.108,0.102c0.008,0.091,0.047,0.18,0.072,0.269c0.038-0.034,0.107-0.071,0.107-0.104
		C158.58,110.819,158.542,110.731,158.518,110.644z M158.191,105.644c-0.016-0.048-0.029-0.092-0.043-0.141
		c-0.033,0.037-0.084,0.072-0.09,0.111c-0.008,0.045,0.023,0.092,0.038,0.139C158.128,105.716,158.16,105.681,158.191,105.644z
		 M149.812,75.425c-0.048-0.09-0.094-0.177-0.141-0.268c-0.045,0.035-0.121,0.07-0.122,0.107c-0.007,0.092,0.021,0.188,0.037,0.28
		C149.661,75.506,149.737,75.466,149.812,75.425z M150.396,100.999c-0.08-0.054-0.157-0.109-0.244-0.156
		c-0.008-0.004-0.066,0.06-0.102,0.094c0.082,0.057,0.164,0.113,0.244,0.172C150.33,101.071,150.363,101.035,150.396,100.999z
		 M155.705,99.245c-0.018-0.076-0.038-0.159-0.059-0.236c-0.046,0.023-0.127,0.047-0.127,0.07c0,0.082,0.029,0.165,0.047,0.249
		C155.611,99.3,155.66,99.272,155.705,99.245z M151.421,76.211c-0.027,0.224-0.053,0.356-0.055,0.487c0,0.031,0.082,0.06,0.126,0.09
		c0.054-0.108,0.134-0.213,0.151-0.327C151.652,76.409,151.543,76.341,151.421,76.211z M150.403,99.503
		c0.015-0.036,0.027-0.07,0.04-0.104c-0.048,0.024-0.097,0.048-0.145,0.072C150.333,99.482,150.369,99.493,150.403,99.503z
		 M160.339,98.771c-0.035,0.009-0.091,0.008-0.105,0.026c-0.023,0.035-0.021,0.081-0.028,0.122c0.06-0.011,0.119-0.021,0.18-0.032
		C160.371,98.851,160.355,98.81,160.339,98.771z M155.566,100.384c0.045-0.029,0.131-0.064,0.125-0.086
		c-0.024-0.083-0.074-0.161-0.116-0.241c-0.039,0.034-0.118,0.069-0.114,0.096C155.48,100.231,155.529,100.306,155.566,100.384z
		 M158.509,112.948c0.013-0.039,0.027-0.078,0.043-0.117c-0.049,0.025-0.099,0.05-0.146,0.074
		C158.439,112.92,158.476,112.933,158.509,112.948z M158.541,114.028c-0.021-0.037-0.043-0.074-0.064-0.111
		c-0.007,0.07-0.015,0.142-0.02,0.211C158.484,114.094,158.512,114.062,158.541,114.028z M158.537,115.255l-0.105-0.007l0.045,0.118
		L158.537,115.255z M153.022,75.137l0.138,0.06l0.018-0.1L153.022,75.137z"/>
</g>
</svg>
