<svg xmlns="http://www.w3.org/2000/svg" width="59.908" height="50"><path fill="#fff" d="M59.908 5.92c-.802 1.67-3.072 4.675-6.277 6.612.07.735.14 1.27.14 2.004 0 3.74-.8 8.348-2.604 12.89-1.803 4.608-4.475 9.283-8.214 13.09-3.74 3.807-8.48 6.946-14.36 8.35C25.18 49.6 21.706 50 18.3 50c-2.94 0-6.145-.267-9.284-1.135C5.81 48.063 2.67 46.66 0 44.455c6.946 1.004 13.224-1.468 18.3-5.274-1.136 0-3.206-.06-5.343-1.2-2.205-1.07-4.608-3.2-6.278-7.41.53.2 1.53.2 2.6.135s2.135-.2 2.94-.4c-4.61-1.402-7.08-4.007-8.35-6.48-1.27-2.47-1.4-4.874-1.4-6.144 1.132.735 3.74 1.736 5.54 1.67-3.674-3.006-5.144-6.08-5.41-8.883-.333-2.807.4-5.477 1.47-7.95 4.88 5.54 9.89 8.813 14.298 10.683 4.408 1.87 8.28 2.337 11.153 2.337-.532-3.54-.065-6.812 1.54-9.483 1.535-2.672 4.14-4.608 7.68-5.61 4.34-1.27 8.55.267 11.42 3.54.6-.067 1.603-.268 2.94-.602 1.335-.333 3.003-1.135 5.01-2.337-.27.868-.87 2.27-1.74 3.606-.87 1.34-2.14 2.68-3.74 3.48 1.33-.267 2.735-.602 4.54-1.202.865-.267 1.8-.6 2.735-1.002z"/></svg>