<svg xmlns="http://www.w3.org/2000/svg" width="59.908" height="50"><path fill="#fff" d="M59.908 5.92c-.802 1.67-3.072 4.675-6.277 6.612.07.735.14 1.27.14 2.004 0 3.74-.8 8.348-2.6 12.89-1.8 4.608-4.47 9.283-8.21 13.09-3.74 3.807-8.48 6.946-14.36 8.35C25.18 49.6 21.71 50 18.3 50c-2.94 0-6.145-.267-9.284-1.135C5.81 48.063 2.67 46.66 0 44.455c6.946 1.004 13.224-1.468 18.3-5.274-1.136 0-3.206-.06-5.343-1.2-2.205-1.07-4.608-3.2-6.278-7.41.53.2 1.53.2 2.6.14s2.13-.2 2.94-.4c-4.61-1.4-7.08-4-8.35-6.48-1.27-2.47-1.4-4.87-1.4-6.14 1.13.74 3.74 1.74 5.54 1.67-3.68-3-5.15-6.08-5.41-8.88C2.26 7.67 3 5 4.07 2.53c4.88 5.54 9.89 8.81 14.29 10.68 4.41 1.87 8.28 2.337 11.15 2.337-.533-3.54-.066-6.812 1.54-9.483 1.534-2.672 4.14-4.61 7.68-5.61 4.34-1.27 8.55.267 11.42 3.54.6-.067 1.602-.27 2.94-.602 1.334-.33 3.002-1.133 5.01-2.335-.27.87-.87 2.27-1.74 3.607-.87 1.34-2.14 2.68-3.74 3.48 1.33-.267 2.734-.602 4.54-1.202.864-.266 1.8-.6 2.734-1z"/></svg>